<?xml version="1.0" encoding="utf-8"?>
<!-- Generator: Adobe Illustrator 17.1.0, SVG Export Plug-In . SVG Version: 6.00 Build 0)  -->
<!DOCTYPE svg PUBLIC "-//W3C//DTD SVG 1.1//EN" "http://www.w3.org/Graphics/SVG/1.1/DTD/svg11.dtd">
<svg version="1.1" id="Ebene_1" xmlns="http://www.w3.org/2000/svg" xmlns:xlink="http://www.w3.org/1999/xlink" x="0px" y="0px"
	 viewBox="0 0 2275.9 168.4" enable-background="new 0 0 2275.9 168.4" xml:space="preserve">
<g>
	<g>
		<path fill="#1D1D1B" d="M1867.3,43.8c1-1.9,0.7-4.2-0.8-5.7c-0.9-0.9-2.1-1.4-3.4-1.4c-0.4,0-0.7,0-1,0.1c-0.2-0.4-0.5-0.7-0.8-1
			c-1.2-1.2-2.7-1.8-4.3-1.8c-1.6,0-3.2,0.6-4.3,1.8c-2,2-2.4,5.2-0.9,7.6l-0.5,2.1c0,0.1,0,0.3,0.1,0.4c0.1,0.1,0.3,0.2,0.4,0.1
			l2.2-0.6c0.9,0.5,1.9,0.8,3,0.8l0,0c1.2,0,2.3-0.3,3.2-0.9c0.8,0.7,1.9,1,3,1c0.9,0,1.8-0.2,2.5-0.7l1.6,0.4c0.1,0,0.3,0,0.4-0.1
			c0.1-0.1,0.2-0.3,0.1-0.4L1867.3,43.8z M1859.5,44.7c-0.8,0.4-1.7,0.7-2.6,0.7c-1,0-1.9-0.3-2.7-0.8c-0.1,0-0.1-0.1-0.2-0.1
			c0,0-0.1,0-0.1,0l-1.7,0.4l0.4-1.6c0-0.1,0-0.2-0.1-0.3c-1.4-2.1-1.1-4.9,0.7-6.7c1-1,2.3-1.5,3.7-1.5c1.4,0,2.7,0.5,3.7,1.5
			c0.2,0.2,0.4,0.4,0.6,0.7c0.2,0.2,0.3,0.5,0.4,0.8c0.3,0.7,0.5,1.5,0.5,2.3c0,1.4-0.5,2.7-1.5,3.7c-0.1,0.1-0.3,0.3-0.4,0.4
			C1860,44.4,1859.7,44.5,1859.5,44.7z M1866.5,43.8l0.3,1.1l-1.1-0.3c-0.1,0-0.2,0-0.3,0.1c-0.7,0.4-1.4,0.7-2.2,0.7
			c-0.8,0-1.6-0.2-2.2-0.7c0.1-0.1,0.2-0.2,0.4-0.3c1.2-1.2,1.8-2.7,1.8-4.3c0-0.9-0.2-1.7-0.5-2.5c0.2,0,0.4,0,0.6,0
			c1.1,0,2.1,0.4,2.8,1.2c1.3,1.3,1.5,3.3,0.6,4.8C1866.4,43.6,1866.4,43.7,1866.5,43.8z"/>
	</g>
	<g>
		<circle fill="#1D1D1B" cx="1854.4" cy="40.3" r="0.9"/>
		<circle fill="#1D1D1B" cx="1856.9" cy="40.3" r="0.9"/>
		<circle fill="#1D1D1B" cx="1859.4" cy="40.3" r="0.9"/>
	</g>
</g>
<g>
	<path fill="#1D1D1B" d="M1913.2,46.1c-3.3,0-6-2.7-6-6s2.7-6,6-6s6,2.7,6,6S1916.5,46.1,1913.2,46.1z M1913.2,35.3
		c-2.7,0-4.8,2.2-4.8,4.8c0,2.7,2.2,4.8,4.8,4.8s4.8-2.2,4.8-4.8C1918,37.4,1915.8,35.3,1913.2,35.3z"/>
	<path fill="#1D1D1B" d="M1914.1,42.9c-0.2,0-0.3-0.1-0.5-0.2l-2-2l2.7-3.2c0.2-0.3,0.6-0.3,0.9-0.1c0.3,0.2,0.3,0.6,0.1,0.9l-2,2.3
		l1.2,1.2c0.2,0.2,0.2,0.7,0,0.9C1914.5,42.9,1914.3,42.9,1914.1,42.9z"/>
</g>
<g>
	<g>
		<path fill="#1D1D1B" d="M1805.5,45c-3.2,0-6.2-1.8-7.6-4.7l-0.1-0.2l0.1-0.2c1.5-2.9,4.4-4.7,7.6-4.7s6.2,1.8,7.6,4.7l0.1,0.2
			l-0.1,0.2C1811.7,43.2,1808.8,45,1805.5,45z M1798.8,40.1c1.4,2.5,3.9,4,6.8,4s5.4-1.5,6.8-4c-1.4-2.5-3.9-4-6.8-4
			S1800.1,37.6,1798.8,40.1z"/>
	</g>
	<g>
		<path fill="#1D1D1B" d="M1805.5,44.3c-2.3,0-4.2-1.9-4.2-4.2s1.9-4.2,4.2-4.2s4.2,1.9,4.2,4.2S1807.9,44.3,1805.5,44.3z
			 M1805.5,36.8c-1.8,0-3.3,1.5-3.3,3.3s1.5,3.3,3.3,3.3s3.3-1.5,3.3-3.3S1807.4,36.8,1805.5,36.8z"/>
	</g>
	<g>
		<circle fill="#1D1D1B" cx="1805.5" cy="40.1" r="1.3"/>
	</g>
</g>
<g>
	<path fill="#1D1D1B" d="M1751.7,32.9c-4,0-7.2,3.2-7.2,7.2s3.2,7.2,7.2,7.2c4,0,7.2-3.2,7.2-7.2S1755.7,32.9,1751.7,32.9z
		 M1751.7,46.6c-1.8,0-3.4-0.7-4.6-1.9l1.6-0.5c0.8,0.3,2.4,1.1,2.9,1.1c0.5,0,2.5-0.9,2.9-1.2l1.8,0.5
		C1755.2,45.8,1753.5,46.6,1751.7,46.6z M1751,39.1C1751,39.1,1751,39.1,1751,39.1c0.1,0.2,0.3,0.2,0.4,0.2c0.1,0,0.7-0.3,1.1-0.7
		c0.2,0.5,0.7,1.2,1.3,1.7c-0.2,1.4-1.1,2.4-2.2,2.4c-1.2-0.1-2.1-1.3-2.2-2.8C1749.8,39.6,1750.4,39.4,1751,39.1z M1749.2,39.2
		c-0.1-0.3-0.1-0.5-0.1-0.8c0-1.6,1.2-2.8,2.7-2.8c1.5,0,2.7,1.2,2.7,2.8c0,0.4-0.1,0.9-0.3,1.3c-0.9-0.6-1.3-1.9-1.3-1.9
		c0-0.1-0.2-0.2-0.3-0.2s-0.3,0.1-0.3,0.2c-0.1,0.3-0.4,0.5-0.7,0.7c0,0,0-0.1,0-0.1c0-0.1-0.1-0.2-0.2-0.2c-0.1,0-0.2,0-0.3,0.1
		C1750.5,38.7,1749.5,39.1,1749.2,39.2z M1750.4,43.5v-0.7c0.4,0.2,0.8,0.3,1.2,0.3c0.5,0,1-0.2,1.4-0.5v0.9c0,0.1,0.1,0.3,0.2,0.3
		l0.4,0.1c-0.7,0.3-1.8,0.8-2,0.8c-0.2,0-1.1-0.4-2-0.8l0.5-0.2C1750.3,43.8,1750.4,43.7,1750.4,43.5z M1756.8,44.1l-3.1-0.9V42v0
		c0.3-0.5,0.6-1.1,0.7-1.7c0.1-0.1,0.2-0.2,0.2-0.3c0.3-0.5,0.4-1.1,0.4-1.7c0-1.9-1.4-3.4-3.3-3.4c-1.8,0-3.3,1.5-3.3,3.5
		c0,0.4,0.1,0.8,0.2,1.1c0,0,0.1,0.2,0.2,0.3c0,1,0.4,1.9,1,2.5v1l-3,0.9c0,0,0,0,0,0c-0.9-1.1-1.4-2.5-1.4-4.1
		c0-3.6,2.9-6.5,6.5-6.5s6.5,2.9,6.5,6.5C1758.2,41.6,1757.7,43,1756.8,44.1C1756.8,44.1,1756.8,44.1,1756.8,44.1z"/>
</g>
<g>
	<g>
		<g id="g104_27_" transform="translate(280.6885,392.415)">
			<path id="path106_27_" fill="#000100" d="M1789.5-354.7c0-0.5,0.2-1,0.5-1.3c0.3-0.3,0.7-0.5,1.2-0.5c0.5,0,0.9,0.2,1.2,0.5
				c0.3,0.3,0.5,0.7,0.5,1.3v1.7h0.1c0.5-0.9,1.2-1.7,2-2.4c0.8-0.7,1.7-1.1,2.6-1.1c0.5,0,1,0.2,1.3,0.5c0.4,0.3,0.6,0.7,0.6,1.2
				c0,0.6-0.2,1-0.6,1.3c-0.4,0.3-1,0.5-1.8,0.7c-0.8,0.2-1.3,0.4-1.5,0.5c-1.8,1-2.8,2.7-2.8,5.1v10c0,0.6-0.2,1-0.5,1.3
				c-0.3,0.3-0.7,0.5-1.2,0.5c-0.5,0-0.9-0.2-1.2-0.5c-0.3-0.3-0.5-0.8-0.5-1.3V-354.7z"/>
		</g>
		<g id="g108_27_" transform="translate(280.6885,392.415)">
			<path fill="#000100" d="M1791.2-335.2c-0.6,0-1-0.2-1.4-0.6c-0.4-0.4-0.6-0.9-0.6-1.6v-17.4c0-0.6,0.2-1.1,0.6-1.5
				c0.4-0.4,0.8-0.6,1.4-0.6c0.5,0,1,0.2,1.4,0.5c0.4,0.4,0.6,0.9,0.6,1.5v0.9c0.4-0.6,1-1.2,1.6-1.8c0.9-0.8,1.8-1.2,2.8-1.2
				c0,0,0,0,0,0c0.6,0,1.1,0.2,1.5,0.6c0.5,0.4,0.7,0.9,0.7,1.5c0,0.7-0.2,1.2-0.7,1.5c-0.4,0.3-1,0.5-1.8,0.7
				c-0.7,0.2-1.2,0.3-1.4,0.5c-1.8,1-2.6,2.6-2.6,4.9v10c0,0.6-0.2,1.1-0.6,1.5C1792.2-335.3,1791.7-335.2,1791.2-335.2z
				 M1791.1-356.2c-0.4,0-0.7,0.1-1,0.4c-0.3,0.3-0.4,0.6-0.4,1.1v17.4c0,0.5,0.1,0.9,0.4,1.1c0.3,0.3,0.6,0.4,1,0.4
				c0.4,0,0.7-0.1,0.9-0.4c0.3-0.2,0.4-0.6,0.4-1.1v-10c0-2.5,1-4.3,2.9-5.4c0.2-0.1,0.7-0.3,1.6-0.5c0.7-0.2,1.3-0.4,1.7-0.7
				c0.3-0.2,0.5-0.6,0.5-1c0-0.4-0.2-0.7-0.5-1c-0.3-0.3-0.7-0.4-1.2-0.4c-0.8,0-1.6,0.4-2.4,1.1c-0.8,0.7-1.4,1.5-1.9,2.3l-0.1,0.1
				h-0.5v-2c0-0.5-0.1-0.8-0.4-1.1C1791.8-356,1791.5-356.2,1791.1-356.2z"/>
		</g>
	</g>
	<g>
		<g id="g112_27_" transform="translate(292.5103,386.2129)">
			<path id="path114_27_" fill="#000100" d="M1791.9-341h11.3c0-1.9-0.5-3.4-1.5-4.6c-1-1.1-2.3-1.7-4-1.8c-1.7,0-3.1,0.6-4.1,1.7
				C1792.5-344.6,1792-343,1791.9-341 M1788.5-340c0.1-1.8,0.5-3.4,1.2-5c0.7-1.6,1.8-2.9,3.1-3.8c1.4-1,2.9-1.5,4.8-1.5
				c1.8,0,3.3,0.5,4.7,1.4c1.4,1,2.4,2.2,3.2,3.8c0.8,1.6,1.1,3.2,1.1,4.9c0,1.1-0.6,1.7-1.9,1.7h-12.8c0,1.4,0.3,2.5,0.9,3.5
				c0.6,0.9,1.3,1.6,2.3,2.1c0.9,0.5,2,0.7,3.1,0.7c2,0,3.9-0.7,5.5-2.1c0.6-0.4,1-0.6,1.3-0.6c0.4,0,0.7,0.1,0.9,0.4
				c0.2,0.3,0.3,0.6,0.3,1c0,0.4-0.2,0.8-0.5,1.2c-0.8,0.8-1.8,1.5-3.2,2.1c-1.4,0.6-2.9,0.9-4.5,0.9c-1.7,0-3.1-0.3-4.4-0.9
				c-1.2-0.6-2.2-1.5-3-2.5c-0.8-1-1.3-2.2-1.7-3.4c-0.3-1.2-0.5-2.4-0.5-3.7C1788.4-339.8,1788.4-339.9,1788.5-340
				C1788.5-339.9,1788.5-339.9,1788.5-340"/>
		</g>
		<g id="g116_27_" transform="translate(292.5103,386.2129)">
			<path fill="#000100" d="M1797.9-329c-1.7,0-3.2-0.3-4.5-1c-1.3-0.6-2.3-1.5-3.1-2.6c-0.8-1.1-1.3-2.2-1.7-3.5
				c-0.4-1.2-0.5-2.5-0.6-3.7l0-0.1l0-0.1c0,0,0-0.1,0-0.1c0.1-1.8,0.5-3.5,1.2-5.1c0.7-1.6,1.8-2.9,3.2-3.9c1.4-1,3.1-1.5,4.9-1.6
				c1.8,0,3.5,0.5,4.9,1.5c1.4,1,2.5,2.3,3.3,3.9c0.8,1.6,1.2,3.3,1.2,5.1c0,0.9-0.4,1.9-2.2,1.9h-12.5c0.1,1.2,0.3,2.2,0.8,3
				c0.5,0.9,1.2,1.6,2.1,2c0.9,0.4,1.9,0.7,3,0.7c1.9,0,3.7-0.7,5.3-2.1c0.7-0.5,1.1-0.7,1.5-0.7c0.5,0,0.8,0.2,1.1,0.5
				c0.2,0.3,0.4,0.7,0.4,1.2c0,0.5-0.2,1-0.6,1.4c-0.8,0.8-1.9,1.6-3.3,2.2C1801.1-329.3,1799.6-329,1797.9-329z M1788.7-339.7
				c0,1.2,0.2,2.4,0.5,3.5c0.3,1.2,0.9,2.3,1.6,3.3c0.7,1,1.7,1.8,2.9,2.4c1.2,0.6,2.6,0.9,4.2,0.9c1.6,0,3-0.3,4.4-0.9
				c1.3-0.6,2.4-1.3,3.1-2c0.3-0.3,0.4-0.7,0.4-1c0-0.3-0.1-0.6-0.3-0.8c-0.2-0.2-0.4-0.3-0.7-0.3c-0.1,0-0.4,0.1-1.1,0.6
				c-1.7,1.4-3.6,2.2-5.7,2.2c-1.2,0-2.3-0.2-3.3-0.7c-1-0.5-1.8-1.2-2.4-2.2c-0.6-1-0.9-2.2-0.9-3.6l0-0.3h13.1
				c1.1,0,1.6-0.4,1.6-1.4c0-1.7-0.4-3.3-1.1-4.8c-0.7-1.5-1.8-2.8-3.1-3.7c-1.3-0.9-2.9-1.4-4.6-1.4c-1.8,0-3.3,0.5-4.6,1.5
				c-1.3,0.9-2.3,2.2-3,3.7c-0.7,1.5-1.1,3.2-1.2,4.9l0,0.1C1788.7-339.8,1788.7-339.7,1788.7-339.7z M1803.5-340.7h-11.9l0-0.3
				c0.1-2.1,0.7-3.7,1.8-4.9c1.1-1.2,2.6-1.8,4.4-1.8h0c1.8,0,3.2,0.7,4.2,1.9c1,1.2,1.5,2.8,1.6,4.7L1803.5-340.7z M1792.2-341.3
				h10.7c-0.1-1.7-0.6-3-1.4-4.1c-0.9-1.1-2.2-1.6-3.8-1.7c-1.6,0-2.9,0.5-3.9,1.6C1792.8-344.5,1792.3-343.1,1792.2-341.3z"/>
		</g>
	</g>
	<g>
		<g id="g120_27_" transform="translate(309.4863,385.2158)">
			<path id="path122_27_" fill="#000100" d="M1795.3-338.8c0,2.1,0.5,3.9,1.4,5.3c0.9,1.5,2.2,2.2,4,2.3c1.4,0,2.6-0.4,3.5-1.1
				c0.9-0.7,1.5-1.7,1.9-2.8c0.4-1.1,0.6-2.4,0.6-3.7c0-1.5-0.2-2.8-0.7-4c-0.5-1.2-1.2-2.1-2-2.7c-0.9-0.6-1.8-0.9-2.9-0.9
				c-1.3,0-2.3,0.4-3.2,1.1c-0.8,0.8-1.5,1.7-1.9,2.8C1795.6-341.3,1795.4-340.1,1795.3-338.8 M1806.3-346.5v-10.1
				c0-0.5,0.2-0.9,0.5-1.2c0.3-0.3,0.7-0.5,1.2-0.5c0.5,0,0.9,0.2,1.2,0.5c0.3,0.3,0.5,0.7,0.5,1.3v26.6c0,0.5-0.2,1-0.5,1.3
				c-0.3,0.3-0.7,0.5-1.2,0.5c-0.4,0-0.8-0.2-1.2-0.5c-0.3-0.3-0.5-0.7-0.5-1.2v-1.1h-0.1c-0.4,0.7-1,1.4-1.8,1.9
				c-0.8,0.5-2,0.8-3.4,0.9c-1.8,0-3.4-0.4-4.8-1.3c-1.4-0.9-2.4-2.1-3.2-3.7c-0.8-1.6-1.1-3.4-1.2-5.4c0-1.4,0.2-2.8,0.6-4.1
				c0.4-1.3,1-2.4,1.8-3.4c0.8-1,1.7-1.7,2.8-2.3c1.1-0.6,2.3-0.8,3.5-0.8C1803-349.3,1804.8-348.4,1806.3-346.5L1806.3-346.5z"/>
		</g>
		<g id="g124_27_" transform="translate(309.4863,385.2158)">
			<path fill="#000100" d="M1808-328c-0.5,0-1-0.2-1.3-0.5c-0.4-0.4-0.6-0.8-0.6-1.4v-0.2c-0.4,0.5-0.8,0.9-1.4,1.3
				c-0.9,0.6-2,0.9-3.5,0.9c-1.9,0-3.5-0.5-4.9-1.4c-1.4-0.9-2.5-2.2-3.3-3.8c-0.8-1.6-1.2-3.5-1.2-5.5c0-1.5,0.2-2.9,0.6-4.2
				c0.4-1.3,1-2.5,1.8-3.5c0.8-1,1.8-1.8,2.9-2.4c1.1-0.6,2.3-0.9,3.7-0.9c2.2,0,4,0.8,5.4,2.4v-9.4c0-0.6,0.2-1.1,0.6-1.5
				c0.4-0.4,0.8-0.5,1.4-0.5c0.6,0,1,0.2,1.4,0.5c0.4,0.4,0.6,0.9,0.6,1.5v26.6c0,0.6-0.2,1.1-0.6,1.5
				C1809-328.1,1808.5-328,1808-328z M1806.1-331.3h0.5v1.4c0,0.4,0.1,0.7,0.4,1c0.3,0.3,0.6,0.4,1,0.4c0.4,0,0.7-0.1,1-0.4
				c0.3-0.3,0.4-0.6,0.4-1.1v-26.6c0-0.5-0.1-0.9-0.4-1.1c-0.3-0.3-0.6-0.4-1-0.4c-0.4,0-0.7,0.1-1,0.4c-0.3,0.2-0.4,0.6-0.4,1v10.4
				h-0.5l-0.1-0.1c-1.3-1.8-3.1-2.7-5.3-2.7c-1.2,0-2.4,0.3-3.4,0.8c-1,0.5-1.9,1.3-2.7,2.2c-0.7,0.9-1.3,2.1-1.7,3.3
				s-0.6,2.6-0.6,4c0,2,0.4,3.7,1.1,5.3c0.7,1.5,1.8,2.7,3.1,3.6c1.3,0.9,2.9,1.3,4.6,1.3c1.3,0,2.4-0.3,3.2-0.8
				c0.8-0.5,1.3-1.1,1.7-1.8L1806.1-331.3z M1800.7-330.9c-1.9-0.1-3.3-0.9-4.3-2.4c-0.9-1.5-1.4-3.4-1.4-5.5c0-1.3,0.3-2.5,0.7-3.7
				c0.4-1.2,1.1-2.2,1.9-3c0.9-0.8,2-1.2,3.4-1.2c1.1,0,2.2,0.3,3.1,1c0.9,0.7,1.6,1.6,2.1,2.8c0.5,1.2,0.7,2.6,0.7,4.1
				c0,1.3-0.2,2.6-0.6,3.7c-0.4,1.2-1.1,2.2-2,2.9C1803.4-331.3,1802.2-330.9,1800.7-330.9z M1801-346.1c-1.2,0-2.2,0.4-3,1.1
				c-0.8,0.7-1.4,1.6-1.8,2.7c-0.4,1.1-0.6,2.3-0.6,3.5c0,2,0.4,3.8,1.3,5.2c0.9,1.4,2.1,2.1,3.8,2.2c1.4,0,2.4-0.3,3.3-1
				c0.8-0.7,1.4-1.6,1.8-2.7c0.4-1.1,0.6-2.3,0.6-3.6c0-1.4-0.2-2.7-0.7-3.9c-0.5-1.1-1.1-2-1.9-2.6
				C1803-345.8,1802.1-346.1,1801-346.1z"/>
		</g>
	</g>
	<g id="g144_48_" transform="translate(346.8604,398.5088)">
		<path id="path146_48_" fill="#FFFFFF" d="M1781.5-368.1c0,1.5-1.2,2.8-2.8,2.8c-1.5,0-2.8-1.2-2.8-2.8c0-1.5,1.2-2.8,2.8-2.8
			C1780.2-370.9,1781.5-369.7,1781.5-368.1"/>
	</g>
	<g id="g148_48_" transform="translate(346.8604,398.5088)">
		<path fill="#00B290" d="M1778.7-364.6c-2,0-3.5-1.6-3.5-3.6c0-2,1.6-3.6,3.5-3.6c2,0,3.6,1.6,3.6,3.6
			C1782.2-366.2,1780.6-364.6,1778.7-364.6z M1778.7-370.1c-1.1,0-2,0.9-2,2c0,1.1,0.9,2,2,2c1.1,0,2-0.9,2-2
			C1780.7-369.2,1779.8-370.1,1778.7-370.1z"/>
	</g>
	<g id="g152_48_" transform="translate(344.5557,392.5674)">
		<path fill="#000100" d="M1781-335.6c-0.9,0-1.6-0.7-1.6-1.6V-355c0-0.9,0.7-1.6,1.6-1.6s1.6,0.7,1.6,1.6v17.8
			C1782.6-336.3,1781.9-335.6,1781-335.6z"/>
	</g>
	<g>
		<g id="g128_27_" transform="translate(327.3467,385.2158)">
			<path id="path130_27_" fill="#000100" d="M1807.1-338.8c0,2.1,0.4,3.9,1.4,5.3c0.9,1.5,2.2,2.2,4,2.3c1.4,0,2.6-0.4,3.5-1.1
				c0.9-0.7,1.5-1.7,1.9-2.8c0.4-1.1,0.6-2.4,0.6-3.7c0-1.5-0.2-2.8-0.7-4c-0.5-1.2-1.2-2.1-2-2.7c-0.9-0.6-1.8-0.9-2.9-0.9
				c-1.3,0-2.3,0.4-3.2,1.1c-0.8,0.8-1.5,1.7-1.9,2.8C1807.3-341.3,1807.1-340.1,1807.1-338.8 M1818-346.5v-10.1
				c0-0.5,0.2-0.9,0.5-1.2c0.3-0.3,0.7-0.5,1.2-0.5c0.5,0,0.9,0.2,1.2,0.5c0.3,0.3,0.5,0.7,0.5,1.3v26.6c0,0.5-0.2,1-0.5,1.3
				c-0.3,0.3-0.8,0.5-1.2,0.5c-0.4,0-0.8-0.2-1.2-0.5c-0.3-0.3-0.5-0.7-0.5-1.2v-1.1h-0.1c-0.4,0.7-1,1.4-1.8,1.9
				c-0.8,0.5-2,0.8-3.4,0.9c-1.8,0-3.4-0.4-4.8-1.3c-1.4-0.9-2.4-2.1-3.2-3.7c-0.8-1.6-1.1-3.4-1.2-5.4c0-1.4,0.2-2.8,0.6-4.1
				c0.4-1.3,1-2.4,1.8-3.4c0.8-1,1.7-1.7,2.8-2.3c1.1-0.6,2.3-0.8,3.5-0.8C1814.7-349.3,1816.5-348.4,1818-346.5L1818-346.5z"/>
		</g>
		<g id="g132_27_" transform="translate(327.3467,385.2158)">
			<path fill="#000100" d="M1819.7-328c-0.5,0-1-0.2-1.3-0.5c-0.4-0.4-0.6-0.8-0.6-1.4v-0.2c-0.4,0.5-0.8,0.9-1.4,1.3
				c-0.9,0.6-2,0.9-3.5,0.9c-1.9,0-3.5-0.5-4.9-1.4c-1.4-0.9-2.5-2.2-3.3-3.8c-0.8-1.6-1.2-3.5-1.2-5.5c0-1.5,0.2-2.9,0.6-4.2
				c0.4-1.3,1-2.5,1.8-3.5c0.8-1,1.8-1.8,2.9-2.4c1.1-0.6,2.3-0.9,3.7-0.9c2.2,0,4,0.8,5.4,2.4v-9.4c0-0.6,0.2-1.1,0.6-1.5
				c0.4-0.4,0.8-0.5,1.4-0.5c0.6,0,1.1,0.2,1.4,0.5c0.4,0.4,0.6,0.9,0.6,1.5v26.6c0,0.6-0.2,1.1-0.6,1.5
				C1820.7-328.1,1820.2-328,1819.7-328z M1817.8-331.3h0.5v1.4c0,0.4,0.1,0.7,0.4,1c0.3,0.3,0.6,0.4,1,0.4c0.4,0,0.7-0.1,1-0.4
				c0.3-0.3,0.4-0.6,0.4-1.1v-26.6c0-0.5-0.1-0.9-0.4-1.1c-0.5-0.5-1.4-0.5-2,0c-0.3,0.2-0.4,0.6-0.4,1v10.4h-0.5l-0.1-0.1
				c-1.3-1.8-3.1-2.7-5.3-2.7c-1.2,0-2.4,0.3-3.4,0.8c-1,0.5-1.9,1.3-2.7,2.2c-0.7,0.9-1.3,2.1-1.7,3.3c-0.4,1.3-0.6,2.6-0.6,4
				c0,2,0.4,3.7,1.1,5.3c0.7,1.5,1.8,2.7,3.1,3.6c1.3,0.9,2.9,1.3,4.6,1.3c1.3,0,2.4-0.3,3.2-0.8c0.8-0.5,1.3-1.1,1.7-1.8
				L1817.8-331.3z M1812.4-330.9c-1.9-0.1-3.3-0.9-4.3-2.4c-0.9-1.5-1.4-3.4-1.4-5.5c0-1.3,0.3-2.5,0.7-3.7c0.4-1.2,1.1-2.2,1.9-3
				c0.9-0.8,2-1.2,3.4-1.2c1.1,0,2.2,0.3,3.1,1c0.9,0.7,1.6,1.6,2.1,2.8c0.5,1.2,0.7,2.6,0.7,4.1c0,1.3-0.2,2.6-0.6,3.7
				c-0.4,1.2-1.1,2.2-2,2.9C1815.2-331.3,1813.9-330.9,1812.4-330.9z M1812.7-346.1c-1.2,0-2.2,0.4-3,1.1c-0.8,0.7-1.4,1.6-1.8,2.7
				c-0.4,1.1-0.6,2.3-0.6,3.5c0,2,0.4,3.8,1.3,5.2c0.9,1.4,2.1,2.1,3.8,2.2c1.3,0,2.4-0.3,3.3-1c0.8-0.7,1.4-1.6,1.8-2.7
				c0.4-1.1,0.6-2.3,0.6-3.6c0-1.4-0.2-2.7-0.7-3.9c-0.5-1.1-1.1-2-1.9-2.6C1814.7-345.8,1813.8-346.1,1812.7-346.1z"/>
		</g>
	</g>
	<g>
		<g id="g136_27_" transform="translate(351.7471,391.2998)">
			<path id="path138_27_" fill="#000100" d="M1812-352.2h-1.5c-0.5,0-0.9-0.1-1.2-0.4c-0.3-0.3-0.5-0.6-0.5-1c0.1-1,0.7-1.5,1.7-1.5
				h1.5v-4.6c0-0.5,0.2-0.9,0.5-1.2c0.3-0.3,0.7-0.4,1.2-0.4c0.5,0,0.9,0.1,1.2,0.4c0.3,0.3,0.5,0.7,0.5,1.2v4.5h1.5
				c0.5,0,0.9,0.1,1.2,0.4c0.3,0.3,0.4,0.6,0.4,1.1c0,0.4-0.1,0.7-0.4,1c-0.3,0.3-0.6,0.4-1,0.4h-1.7v16.2c0,0.5-0.2,0.9-0.5,1.2
				c-0.4,0.3-0.8,0.4-1.3,0.4c-0.4,0-0.8-0.1-1.1-0.4c-0.3-0.3-0.5-0.7-0.5-1.3V-352.2z"/>
		</g>
		<g id="g140_27_" transform="translate(351.7471,391.2998)">
			<path fill="#000100" d="M1813.6-334c-0.5,0-1-0.2-1.3-0.5c-0.4-0.4-0.5-0.9-0.5-1.5V-352h-1.2c-0.6,0-1-0.2-1.4-0.5
				c-0.3-0.3-0.5-0.7-0.6-1.2c0.1-1.2,0.8-1.8,2-1.8h1.2v-4.3c0-0.6,0.2-1.1,0.6-1.4c0.4-0.3,0.8-0.5,1.4-0.5c0.6,0,1,0.2,1.4,0.5
				c0.4,0.3,0.6,0.8,0.6,1.5v4.2h1.2c0.6,0,1.1,0.2,1.4,0.5c0.3,0.3,0.5,0.8,0.5,1.3c0,0.5-0.2,0.9-0.5,1.2
				c-0.3,0.3-0.7,0.5-1.2,0.5h-1.4v16c0,0.6-0.2,1.1-0.6,1.4C1814.7-334.2,1814.2-334,1813.6-334z M1810.5-354.9
				c-0.9,0-1.3,0.4-1.4,1.3c0,0.3,0.2,0.6,0.4,0.8c0.2,0.2,0.6,0.3,1,0.3h1.8v16.5c0,0.5,0.1,0.8,0.4,1.1c0.2,0.2,0.5,0.4,0.9,0.4
				c0.4,0,0.8-0.1,1.1-0.4c0.3-0.2,0.4-0.6,0.4-1v-16.5h1.9c0.3,0,0.6-0.1,0.8-0.3c0.2-0.2,0.3-0.5,0.3-0.8c0-0.4-0.1-0.7-0.3-0.9
				c-0.2-0.2-0.5-0.3-1-0.3h-1.8v-4.8c0-0.5-0.1-0.8-0.4-1c-0.3-0.2-0.6-0.4-1.1-0.4c-0.4,0-0.7,0.1-1,0.3c-0.3,0.2-0.4,0.5-0.4,0.9
				v4.9H1810.5z"/>
		</g>
	</g>
	<g id="g144_47_" transform="translate(346.8604,398.5088)">
		<path id="path146_47_" fill="#FFFFFF" d="M1811-368.1c0,1.5-1.2,2.8-2.8,2.8s-2.8-1.2-2.8-2.8c0-1.5,1.2-2.8,2.8-2.8
			S1811-369.7,1811-368.1"/>
	</g>
	<g id="g148_47_" transform="translate(346.8604,398.5088)">
		<path fill="#00B290" d="M1808.3-364.6c-2,0-3.5-1.6-3.5-3.6c0-2,1.6-3.6,3.5-3.6c2,0,3.6,1.6,3.6,3.6
			C1811.8-366.2,1810.2-364.6,1808.3-364.6z M1808.3-370.1c-1.1,0-2,0.9-2,2c0,1.1,0.9,2,2,2c1.1,0,2-0.9,2-2
			C1810.3-369.2,1809.4-370.1,1808.3-370.1z"/>
	</g>
	<g id="g152_47_" transform="translate(344.5557,392.5674)">
		<path fill="#000100" d="M1810.6-335.6c-0.9,0-1.6-0.7-1.6-1.6V-355c0-0.9,0.7-1.6,1.6-1.6c0.9,0,1.6,0.7,1.6,1.6v17.8
			C1812.2-336.3,1811.5-335.6,1810.6-335.6z"/>
	</g>
	<g id="g24_33_" transform="translate(265.3481,392.7275)">
		<path id="path26_33_" fill="#FFFFFF" d="M1786.3-355.4c2.9,0,5.3,2.9,5.3,6.4c0,3.5-2.4,6.4-5.3,6.4s-5.3-2.9-5.3-6.4
			C1781-352.5,1783.4-355.4,1786.3-355.4"/>
	</g>
	<g id="g28_33_" transform="translate(265.3481,392.7275)">
		<path fill="#000100" d="M1786.3-342c-3.2,0-5.8-3.1-5.8-6.9c0-3.8,2.6-6.9,5.8-6.9c3.2,0,5.8,3.1,5.8,6.9
			C1792.2-345.1,1789.6-342,1786.3-342z M1786.3-354.9c-2.6,0-4.8,2.6-4.8,5.9c0,3.2,2.1,5.9,4.8,5.9c2.6,0,4.8-2.6,4.8-5.9
			C1791.1-352.2,1789-354.9,1786.3-354.9z"/>
	</g>
	<g id="g32_33_" transform="translate(258.4063,376.5361)">
		<path id="path34_33_" fill="#FFFFFF" d="M1784.9-319.7c0.1-0.2,0.1-0.5,0.1-0.7c0-1.6-1.6-3-3.7-3c-2,0-3.7,1.3-3.7,3
			c0,0.3,0.1,0.5,0.1,0.7H1784.9z"/>
	</g>
	<g id="g36_33_" transform="translate(258.4063,376.5361)">
		<path fill="#000100" d="M1784.9-319.2h-7.1c-0.2,0-0.4-0.1-0.5-0.4c-0.1-0.3-0.2-0.6-0.2-0.9c0-1.9,1.9-3.5,4.2-3.5
			c2.3,0,4.2,1.6,4.2,3.5c0,0.3,0,0.6-0.2,0.9C1785.4-319.3,1785.2-319.2,1784.9-319.2z M1778.3-320.2h6.2c0-0.1,0-0.1,0-0.2
			c0-1.3-1.4-2.4-3.1-2.4c-1.7,0-3.1,1.1-3.1,2.4C1778.3-320.4,1778.3-320.3,1778.3-320.2z"/>
	</g>
	<g id="g40_33_" transform="translate(269.0518,376.5361)">
		<path id="path42_33_" fill="#FFFFFF" d="M1787.1-319.7c0.1-0.2,0.1-0.5,0.1-0.7c0-1.6-1.6-3-3.7-3c-2,0-3.7,1.3-3.7,3
			c0,0.3,0.1,0.5,0.1,0.7H1787.1z"/>
	</g>
	<g id="g44_33_" transform="translate(269.0518,376.5361)">
		<path fill="#000100" d="M1787.1-319.2h-7.1c-0.2,0-0.4-0.1-0.5-0.4c-0.1-0.3-0.2-0.6-0.2-0.9c0-1.9,1.9-3.5,4.2-3.5
			c2.3,0,4.2,1.6,4.2,3.5c0,0.3-0.1,0.6-0.2,0.9C1787.5-319.3,1787.3-319.2,1787.1-319.2z M1780.4-320.2h6.2c0-0.1,0-0.1,0-0.2
			c0-1.3-1.4-2.4-3.1-2.4c-1.7,0-3.1,1.1-3.1,2.4C1780.4-320.4,1780.4-320.3,1780.4-320.2z"/>
	</g>
	<g id="g48_33_" transform="translate(252.4888,403.9858)">
		<path id="path50_33_" fill="#FFFFFF" d="M1783.7-380.2c0,1.8-1.5,3.3-3.3,3.3c-1.8,0-3.3-1.5-3.3-3.3c0-1.8,1.5-3.3,3.3-3.3
			C1782.3-383.5,1783.7-382,1783.7-380.2"/>
	</g>
	<g id="g52_33_" transform="translate(252.4888,403.9858)">
		<path fill="#000100" d="M1780.5-376.4c-2.1,0-3.8-1.7-3.8-3.8c0-2.1,1.7-3.8,3.8-3.8c2.1,0,3.8,1.7,3.8,3.8
			C1784.2-378.1,1782.5-376.4,1780.5-376.4z M1780.5-382.9c-1.5,0-2.7,1.2-2.7,2.7c0,1.5,1.2,2.7,2.7,2.7c1.5,0,2.7-1.2,2.7-2.7
			C1783.2-381.7,1782-382.9,1780.5-382.9z"/>
	</g>
	<g id="g56_33_" transform="translate(274.5913,403.9858)">
		<path id="path58_33_" fill="#FFFFFF" d="M1788.2-380.2c0,1.8-1.5,3.3-3.3,3.3c-1.8,0-3.3-1.5-3.3-3.3c0-1.8,1.5-3.3,3.3-3.3
			C1786.8-383.5,1788.2-382,1788.2-380.2"/>
	</g>
	<g id="g60_33_" transform="translate(274.5913,403.9858)">
		<path fill="#000100" d="M1785-376.4c-2.1,0-3.8-1.7-3.8-3.8c0-2.1,1.7-3.8,3.8-3.8c2.1,0,3.8,1.7,3.8,3.8
			C1788.8-378.1,1787.1-376.4,1785-376.4z M1785-382.9c-1.5,0-2.7,1.2-2.7,2.7c0,1.5,1.2,2.7,2.7,2.7c1.5,0,2.7-1.2,2.7-2.7
			C1787.7-381.7,1786.5-382.9,1785-382.9z"/>
	</g>
	<g id="g64_33_" transform="translate(268.3286,413.4697)">
		<path fill="#000100" d="M1778-394.5c-0.1,0-0.1,0-0.2,0c-0.3-0.1-0.4-0.4-0.3-0.7l2.4-7.6c0.1-0.3,0.4-0.4,0.6-0.4l6.5,1.5
			c0.3,0.1,0.5,0.4,0.4,0.6c-0.1,0.3-0.4,0.5-0.6,0.4l-6-1.4l-2.2,7.1C1778.5-394.7,1778.3-394.5,1778-394.5z"/>
	</g>
	<g id="g68_33_" transform="translate(256.2495,392.7275)">
		<path id="path70_33_" fill="#FFFFFF" d="M1784.5-355.4c2.9,0,5.3,2.9,5.3,6.4c0,3.5-2.4,6.4-5.3,6.4c-2.9,0-5.3-2.9-5.3-6.4
			C1779.2-352.5,1781.5-355.4,1784.5-355.4"/>
	</g>
	<g id="g72_33_" transform="translate(256.2495,392.7275)">
		<path fill="#000100" d="M1784.5-342c-3.2,0-5.8-3.1-5.8-6.9c0-3.8,2.6-6.9,5.8-6.9c3.2,0,5.8,3.1,5.8,6.9
			C1790.3-345.1,1787.7-342,1784.5-342z M1784.5-354.9c-2.6,0-4.8,2.6-4.8,5.9c0,3.2,2.1,5.9,4.8,5.9c2.6,0,4.8-2.6,4.8-5.9
			C1789.3-352.2,1787.1-354.9,1784.5-354.9z"/>
	</g>
	<g id="g76_33_" transform="translate(272.6641,413.0327)">
		<path id="path78_33_" fill="#FFFFFF" d="M1787.8-400.1c0,1.4-1.1,2.6-2.6,2.6c-1.4,0-2.6-1.1-2.6-2.6c0-1.4,1.1-2.6,2.6-2.6
			C1786.7-402.7,1787.8-401.6,1787.8-400.1"/>
	</g>
	<g id="g80_33_" transform="translate(272.6641,413.0327)">
		<path fill="#000100" d="M1785.3-397c-1.7,0-3.1-1.4-3.1-3.1c0-1.7,1.4-3.1,3.1-3.1c1.7,0,3.1,1.4,3.1,3.1
			C1788.4-398.4,1787-397,1785.3-397z M1785.3-402.2c-1.1,0-2,0.9-2,2c0,1.1,0.9,2,2,2c1.1,0,2-0.9,2-2
			C1787.3-401.3,1786.4-402.2,1785.3-402.2z"/>
	</g>
	<g id="g84_33_" transform="translate(259.2842,376.5332)">
		<path id="path86_33_" fill="#FFFFFF" d="M1785.1-319.7h3.6c3.2-1.7,5.6-7.6,5.6-14.8c0-8.4-3.3-15.2-7.4-15.2
			c-4.1,0-7.4,6.8-7.4,15.2C1779.5-327.3,1781.9-321.4,1785.1-319.7"/>
	</g>
	<g id="g88_33_" transform="translate(259.2842,376.5332)">
		<path fill="#000100" d="M1788.8-319.2h-3.9l-0.1-0.1c-3.4-1.8-5.9-8.1-5.9-15.2c0-8.8,3.5-15.8,7.9-15.8c4.4,0,7.9,6.9,7.9,15.8
			c0,7.2-2.4,13.4-5.9,15.2L1788.8-319.2z M1785.2-320.2h3.3c3-1.7,5.2-7.6,5.2-14.2c0-8-3.1-14.7-6.8-14.7s-6.8,6.7-6.8,14.7
			C1780.1-327.8,1782.2-321.9,1785.2-320.2z"/>
	</g>
	<g id="g92_33_" transform="translate(273.0176,400.2695)">
		<path id="path94_33_" fill="#FFFFFF" d="M1787.9-372c0,5.3-6.6,9.6-14.7,9.6c-8.1,0-14.7-4.3-14.7-9.6c0-5.3,6.6-9.6,14.7-9.6
			C1781.3-381.6,1787.9-377.3,1787.9-372"/>
	</g>
	<g id="g96_33_" transform="translate(273.0176,400.2695)">
		<path fill="#000100" d="M1773.2-361.9c-8.4,0-15.3-4.6-15.3-10.1c0-5.6,6.8-10.1,15.3-10.1c8.4,0,15.3,4.6,15.3,10.1
			C1788.4-366.4,1781.6-361.9,1773.2-361.9z M1773.2-381.1c-7.8,0-14.2,4.1-14.2,9.1c0,5,6.4,9.1,14.2,9.1c7.8,0,14.2-4.1,14.2-9.1
			C1787.4-377,1781-381.1,1773.2-381.1z"/>
	</g>
	<g id="g100_33_" transform="translate(257.5601,376.5361)">
		<path fill="#000100" d="M1792.7-319.2h-7.9c-0.3,0-0.5-0.2-0.5-0.5c0-0.3,0.2-0.5,0.5-0.5h7.9c0.3,0,0.5,0.2,0.5,0.5
			C1793.2-319.4,1793-319.2,1792.7-319.2z"/>
	</g>
	<g>
		<g id="g172_33_" transform="translate(256.6104,396.5933)">
			<path fill="#000100" d="M1789.6-362.2c-2.5,0-4.3-0.6-5.4-1.7c-0.2-0.2-0.2-0.5,0-0.7c0.2-0.2,0.5-0.2,0.7,0
				c0.9,0.9,2.5,1.4,4.7,1.4c0.3,0,0.5,0.2,0.5,0.5C1790.2-362.4,1789.9-362.2,1789.6-362.2z"/>
		</g>
		<g id="g176_33_" transform="translate(265.0654,396.5933)">
			<path fill="#000100" d="M1781.2-362.2c-0.3,0-0.5-0.2-0.5-0.5c0-0.3,0.2-0.5,0.5-0.5c2.2,0,3.8-0.5,4.7-1.4
				c0.2-0.2,0.5-0.2,0.7,0c0.2,0.2,0.2,0.5,0,0.7C1785.5-362.7,1783.7-362.2,1781.2-362.2z"/>
		</g>
	</g>
	<g>
		<g id="g160_162_" transform="translate(257.9604,401.8286)">
			<path fill="#000100" d="M1787.1-370.8c-0.4,0-0.7-0.3-0.7-0.7c0-0.4,0.3-0.7,0.7-0.7c0.4,0,0.7,0.3,0.7,0.7
				C1787.7-371.1,1787.4-370.8,1787.1-370.8z"/>
		</g>
		<g id="g160_161_" transform="translate(257.9604,401.8286)">
			<path fill="#000100" d="M1789.3-370.8c-0.4,0-0.7-0.3-0.7-0.7c0-0.4,0.3-0.7,0.7-0.7c0.4,0,0.7,0.3,0.7,0.7
				C1790-371.1,1789.7-370.8,1789.3-370.8z"/>
		</g>
	</g>
	<g id="g160_160_" transform="translate(257.9604,401.8286)">
		<path fill="#FFFFFF" stroke="#1D1D1B" stroke-width="0.9633" stroke-miterlimit="10" d="M1783.1-372.1c-1.8,0-3.3-1.5-3.3-3.3
			c0-1.8,1.5-3.3,3.3-3.3c1.8,0,3.3,1.5,3.3,3.3C1786.4-373.6,1784.9-372.1,1783.1-372.1z"/>
	</g>
	<g id="g160_159_" transform="translate(257.9604,401.8286)">
		<path fill="#FFFFFF" stroke="#1D1D1B" stroke-width="0.9633" stroke-miterlimit="10" d="M1793.5-372.1c-1.8,0-3.3-1.5-3.3-3.3
			c0-1.8,1.5-3.3,3.3-3.3c1.8,0,3.3,1.5,3.3,3.3C1796.8-373.6,1795.3-372.1,1793.5-372.1z"/>
	</g>
	<g id="g160_158_" transform="translate(257.9604,401.8286)">
		<path fill="#00B290" d="M1784-373.7c-0.6,0-1.1-0.5-1.1-1.1c0-0.6,0.5-1.1,1.1-1.1c0.6,0,1.1,0.5,1.1,1.1
			C1785.1-374.2,1784.6-373.7,1784-373.7z"/>
	</g>
	<g id="g160_157_" transform="translate(257.9604,401.8286)">
		<path fill="#00B290" d="M1794.4-373.7c-0.6,0-1.1-0.5-1.1-1.1c0-0.6,0.5-1.1,1.1-1.1c0.6,0,1.1,0.5,1.1,1.1
			C1795.5-374.2,1795-373.7,1794.4-373.7z"/>
	</g>
</g>
<g id="g24_34_" transform="translate(265.3481,392.7275)">
	<path id="path26_34_" fill="#FFFFFF" d="M1977-355.4c2.9,0,5.3,2.9,5.3,6.4c0,3.5-2.4,6.4-5.3,6.4s-5.3-2.9-5.3-6.4
		C1971.7-352.5,1974-355.4,1977-355.4"/>
</g>
<g id="g28_34_" transform="translate(265.3481,392.7275)">
	<path fill="#000100" d="M1977-342c-3.2,0-5.8-3.1-5.8-6.9c0-3.8,2.6-6.9,5.8-6.9c3.2,0,5.8,3.1,5.8,6.9
		C1982.8-345.1,1980.2-342,1977-342z M1977-354.9c-2.6,0-4.8,2.6-4.8,5.9c0,3.2,2.1,5.9,4.8,5.9c2.6,0,4.8-2.6,4.8-5.9
		C1981.8-352.2,1979.6-354.9,1977-354.9z"/>
</g>
<g id="g32_34_" transform="translate(258.4063,376.5361)">
	<path id="path34_34_" fill="#FFFFFF" d="M1975.6-319.7c0.1-0.2,0.1-0.5,0.1-0.7c0-1.6-1.6-3-3.7-3c-2,0-3.7,1.3-3.7,3
		c0,0.3,0.1,0.5,0.1,0.7H1975.6z"/>
</g>
<g id="g36_34_" transform="translate(258.4063,376.5361)">
	<path fill="#000100" d="M1975.6-319.2h-7.1c-0.2,0-0.4-0.1-0.5-0.4c-0.1-0.3-0.2-0.6-0.2-0.9c0-1.9,1.9-3.5,4.2-3.5
		c2.3,0,4.2,1.6,4.2,3.5c0,0.3,0,0.6-0.2,0.9C1976-319.3,1975.8-319.2,1975.6-319.2z M1968.9-320.2h6.2c0-0.1,0-0.1,0-0.2
		c0-1.3-1.4-2.4-3.1-2.4c-1.7,0-3.1,1.1-3.1,2.4C1968.9-320.4,1968.9-320.3,1968.9-320.2z"/>
</g>
<g id="g40_34_" transform="translate(269.0518,376.5361)">
	<path id="path42_34_" fill="#FFFFFF" d="M1977.7-319.7c0.1-0.2,0.1-0.5,0.1-0.7c0-1.6-1.6-3-3.7-3c-2,0-3.7,1.3-3.7,3
		c0,0.3,0.1,0.5,0.1,0.7H1977.7z"/>
</g>
<g id="g44_34_" transform="translate(269.0518,376.5361)">
	<path fill="#000100" d="M1977.7-319.2h-7.1c-0.2,0-0.4-0.1-0.5-0.4c-0.1-0.3-0.2-0.6-0.2-0.9c0-1.9,1.9-3.5,4.2-3.5
		c2.3,0,4.2,1.6,4.2,3.5c0,0.3-0.1,0.6-0.2,0.9C1978.2-319.3,1978-319.2,1977.7-319.2z M1971.1-320.2h6.2c0-0.1,0-0.1,0-0.2
		c0-1.3-1.4-2.4-3.1-2.4c-1.7,0-3.1,1.1-3.1,2.4C1971.1-320.4,1971.1-320.3,1971.1-320.2z"/>
</g>
<g id="g48_34_" transform="translate(252.4888,403.9858)">
	<path id="path50_34_" fill="#FFFFFF" d="M1974.3-380.2c0,1.8-1.5,3.3-3.3,3.3c-1.8,0-3.3-1.5-3.3-3.3c0-1.8,1.5-3.3,3.3-3.3
		C1972.9-383.5,1974.3-382,1974.3-380.2"/>
</g>
<g id="g52_34_" transform="translate(252.4888,403.9858)">
	<path fill="#000100" d="M1971.1-376.4c-2.1,0-3.8-1.7-3.8-3.8c0-2.1,1.7-3.8,3.8-3.8c2.1,0,3.8,1.7,3.8,3.8
		C1974.9-378.1,1973.2-376.4,1971.1-376.4z M1971.1-382.9c-1.5,0-2.7,1.2-2.7,2.7c0,1.5,1.2,2.7,2.7,2.7c1.5,0,2.7-1.2,2.7-2.7
		C1973.8-381.7,1972.6-382.9,1971.1-382.9z"/>
</g>
<g id="g56_34_" transform="translate(274.5913,403.9858)">
	<path id="path58_34_" fill="#FFFFFF" d="M1978.9-380.2c0,1.8-1.5,3.3-3.3,3.3c-1.8,0-3.3-1.5-3.3-3.3c0-1.8,1.5-3.3,3.3-3.3
		C1977.4-383.5,1978.9-382,1978.9-380.2"/>
</g>
<g id="g60_34_" transform="translate(274.5913,403.9858)">
	<path fill="#000100" d="M1975.6-376.4c-2.1,0-3.8-1.7-3.8-3.8c0-2.1,1.7-3.8,3.8-3.8c2.1,0,3.8,1.7,3.8,3.8
		C1979.4-378.1,1977.7-376.4,1975.6-376.4z M1975.6-382.9c-1.5,0-2.7,1.2-2.7,2.7c0,1.5,1.2,2.7,2.7,2.7c1.5,0,2.7-1.2,2.7-2.7
		C1978.3-381.7,1977.1-382.9,1975.6-382.9z"/>
</g>
<g id="g64_34_" transform="translate(268.3286,413.4697)">
	<path fill="#000100" d="M1968.7-394.5c-0.1,0-0.1,0-0.2,0c-0.3-0.1-0.4-0.4-0.3-0.7l2.4-7.6c0.1-0.3,0.4-0.4,0.6-0.4l6.5,1.5
		c0.3,0.1,0.5,0.4,0.4,0.6c-0.1,0.3-0.4,0.5-0.6,0.4l-6-1.4l-2.2,7.1C1969.1-394.7,1968.9-394.5,1968.7-394.5z"/>
</g>
<g id="g68_34_" transform="translate(256.2495,392.7275)">
	<path id="path70_34_" fill="#FFFFFF" d="M1975.1-355.4c2.9,0,5.3,2.9,5.3,6.4c0,3.5-2.4,6.4-5.3,6.4c-2.9,0-5.3-2.9-5.3-6.4
		C1969.8-352.5,1972.2-355.4,1975.1-355.4"/>
</g>
<g id="g72_34_" transform="translate(256.2495,392.7275)">
	<path fill="#000100" d="M1975.1-342c-3.2,0-5.8-3.1-5.8-6.9c0-3.8,2.6-6.9,5.8-6.9c3.2,0,5.8,3.1,5.8,6.9
		C1981-345.1,1978.3-342,1975.1-342z M1975.1-354.9c-2.6,0-4.8,2.6-4.8,5.9c0,3.2,2.1,5.9,4.8,5.9c2.6,0,4.8-2.6,4.8-5.9
		C1979.9-352.2,1977.7-354.9,1975.1-354.9z"/>
</g>
<g id="g76_34_" transform="translate(272.6641,413.0327)">
	<path id="path78_34_" fill="#FFFFFF" d="M1978.5-400.1c0,1.4-1.1,2.6-2.6,2.6c-1.4,0-2.6-1.1-2.6-2.6c0-1.4,1.1-2.6,2.6-2.6
		C1977.3-402.7,1978.5-401.6,1978.5-400.1"/>
</g>
<g id="g80_34_" transform="translate(272.6641,413.0327)">
	<path fill="#000100" d="M1975.9-397c-1.7,0-3.1-1.4-3.1-3.1c0-1.7,1.4-3.1,3.1-3.1c1.7,0,3.1,1.4,3.1,3.1
		C1979-398.4,1977.6-397,1975.9-397z M1975.9-402.2c-1.1,0-2,0.9-2,2c0,1.1,0.9,2,2,2c1.1,0,2-0.9,2-2
		C1977.9-401.3,1977-402.2,1975.9-402.2z"/>
</g>
<g id="g84_34_" transform="translate(259.2842,376.5332)">
	<path id="path86_34_" fill="#FFFFFF" d="M1975.7-319.7h3.6c3.2-1.7,5.6-7.6,5.6-14.8c0-8.4-3.3-15.2-7.4-15.2
		c-4.1,0-7.4,6.8-7.4,15.2C1970.2-327.3,1972.5-321.4,1975.7-319.7"/>
</g>
<g id="g88_34_" transform="translate(259.2842,376.5332)">
	<path fill="#000100" d="M1979.5-319.2h-3.9l-0.1-0.1c-3.4-1.8-5.9-8.1-5.9-15.2c0-8.8,3.5-15.8,7.9-15.8c4.4,0,7.9,6.9,7.9,15.8
		c0,7.2-2.4,13.4-5.9,15.2L1979.5-319.2z M1975.9-320.2h3.3c3-1.7,5.2-7.6,5.2-14.2c0-8-3.1-14.7-6.8-14.7s-6.8,6.7-6.8,14.7
		C1970.7-327.8,1972.9-321.9,1975.9-320.2z"/>
</g>
<g id="g92_34_" transform="translate(273.0176,400.2695)">
	<path id="path94_34_" fill="#FFFFFF" d="M1978.5-372c0,5.3-6.6,9.6-14.7,9.6c-8.1,0-14.7-4.3-14.7-9.6c0-5.3,6.6-9.6,14.7-9.6
		C1971.9-381.6,1978.5-377.3,1978.5-372"/>
</g>
<g id="g96_34_" transform="translate(273.0176,400.2695)">
	<path fill="#000100" d="M1963.8-361.9c-8.4,0-15.3-4.6-15.3-10.1c0-5.6,6.8-10.1,15.3-10.1c8.4,0,15.3,4.6,15.3,10.1
		C1979.1-366.4,1972.2-361.9,1963.8-361.9z M1963.8-381.1c-7.8,0-14.2,4.1-14.2,9.1c0,5,6.4,9.1,14.2,9.1c7.8,0,14.2-4.1,14.2-9.1
		C1978-377,1971.6-381.1,1963.8-381.1z"/>
</g>
<g id="g100_34_" transform="translate(257.5601,376.5361)">
	<path fill="#000100" d="M1983.3-319.2h-7.9c-0.3,0-0.5-0.2-0.5-0.5c0-0.3,0.2-0.5,0.5-0.5h7.9c0.3,0,0.5,0.2,0.5,0.5
		C1983.9-319.4,1983.6-319.2,1983.3-319.2z"/>
</g>
<g>
	<g id="g172_34_" transform="translate(256.6104,396.5933)">
		<path fill="#000100" d="M1980.3-362.2c-2.5,0-4.3-0.6-5.4-1.7c-0.2-0.2-0.2-0.5,0-0.7c0.2-0.2,0.5-0.2,0.7,0
			c0.9,0.9,2.5,1.4,4.7,1.4c0.3,0,0.5,0.2,0.5,0.5C1980.8-362.4,1980.5-362.2,1980.3-362.2z"/>
	</g>
	<g id="g176_34_" transform="translate(265.0654,396.5933)">
		<path fill="#000100" d="M1971.8-362.2c-0.3,0-0.5-0.2-0.5-0.5c0-0.3,0.2-0.5,0.5-0.5c2.2,0,3.8-0.5,4.7-1.4c0.2-0.2,0.5-0.2,0.7,0
			c0.2,0.2,0.2,0.5,0,0.7C1976.2-362.7,1974.4-362.2,1971.8-362.2z"/>
	</g>
</g>
<g>
	<g id="g160_168_" transform="translate(257.9604,401.8286)">
		<path fill="#000100" d="M1977.7-370.8c-0.4,0-0.7-0.3-0.7-0.7c0-0.4,0.3-0.7,0.7-0.7c0.4,0,0.7,0.3,0.7,0.7
			C1978.4-371.1,1978.1-370.8,1977.7-370.8z"/>
	</g>
	<g id="g160_167_" transform="translate(257.9604,401.8286)">
		<path fill="#000100" d="M1980-370.8c-0.4,0-0.7-0.3-0.7-0.7c0-0.4,0.3-0.7,0.7-0.7c0.4,0,0.7,0.3,0.7,0.7
			C1980.6-371.1,1980.3-370.8,1980-370.8z"/>
	</g>
</g>
<g id="g160_166_" transform="translate(257.9604,401.8286)">
	<path fill="#FFFFFF" stroke="#1D1D1B" stroke-width="0.9633" stroke-miterlimit="10" d="M1973.7-372.1c-1.8,0-3.3-1.5-3.3-3.3
		c0-1.8,1.5-3.3,3.3-3.3c1.8,0,3.3,1.5,3.3,3.3C1977.1-373.6,1975.6-372.1,1973.7-372.1z"/>
</g>
<g id="g160_165_" transform="translate(257.9604,401.8286)">
	<path fill="#FFFFFF" stroke="#1D1D1B" stroke-width="0.9633" stroke-miterlimit="10" d="M1984.1-372.1c-1.8,0-3.3-1.5-3.3-3.3
		c0-1.8,1.5-3.3,3.3-3.3c1.8,0,3.3,1.5,3.3,3.3C1987.5-373.6,1986-372.1,1984.1-372.1z"/>
</g>
<g id="g160_164_" transform="translate(257.9604,401.8286)">
	<path fill="#00B290" d="M1974.6-373.7c-0.6,0-1.1-0.5-1.1-1.1c0-0.6,0.5-1.1,1.1-1.1c0.6,0,1.1,0.5,1.1,1.1
		C1975.7-374.2,1975.2-373.7,1974.6-373.7z"/>
</g>
<g id="g160_163_" transform="translate(257.9604,401.8286)">
	<path fill="#00B290" d="M1985-373.7c-0.6,0-1.1-0.5-1.1-1.1c0-0.6,0.5-1.1,1.1-1.1c0.6,0,1.1,0.5,1.1,1.1
		C1986.1-374.2,1985.6-373.7,1985-373.7z"/>
</g>
<g>
	<g>
		<path fill="#1D1D1B" d="M403.1,48.9h-3.4v-2.5c2.3-0.2,4.4-1.3,5.9-3c1.6-1.7,2.4-3.9,2.4-6.2v-4.6c0-0.5-0.4-0.9-0.9-0.9h-0.9
			c-0.5,0-0.9,0.4-0.9,0.9c0,0.5,0.4,0.9,0.9,0.9l0,3.7c0,4.1-3.3,7.4-7.4,7.4c-4.1,0-7.4-3.3-7.4-7.4v-3.7c0.5,0,0.9-0.4,0.9-0.9
			c0-0.5-0.4-0.9-0.9-0.9h-0.9c-0.5,0-0.9,0.4-0.9,0.9v4.6c0,2.3,0.9,4.5,2.4,6.2c1.5,1.7,3.6,2.7,5.9,3v2.5h-3.4
			c-2.9,0-5.2,2.3-5.2,5.2c0,0.5,0.4,0.9,0.9,0.9h17.3c0.5,0,0.9-0.4,0.9-0.9C408.3,51.2,405.9,48.9,403.1,48.9z M406.3,53.2h-15.2
			c0.4-1.5,1.8-2.5,3.3-2.5h8.6C404.6,50.7,405.9,51.7,406.3,53.2z"/>
		<path fill="#1D1D1B" d="M398.7,42.1c2.9,0,5.2-2.3,5.2-5.2V26c0-2.9-2.3-5.2-5.2-5.2s-5.2,2.3-5.2,5.2v10.8
			C393.5,39.7,395.8,42.1,398.7,42.1z M395.3,26c0-1.9,1.5-3.4,3.4-3.4s3.4,1.5,3.4,3.4v10.8c0,1.9-1.5,3.4-3.4,3.4
			s-3.4-1.5-3.4-3.4V26z"/>
	</g>
	<g>
		<path fill="#1D1D1B" d="M55.6,25.2H29.8c-1.5,0-2.7,1.2-2.7,2.7V48c0,1.5,1.2,2.7,2.7,2.7h25.8c1.5,0,2.7-1.2,2.7-2.7V27.8
			C58.3,26.4,57.1,25.2,55.6,25.2z M56.1,48.5H38.6l9.1-10.4l8.4,4.9V48.5z M56.1,40.5l-8-4.7c-0.4-0.2-1-0.1-1.4,0.2l-11,12.5h-6.5
			V27.3h26.8V40.5z"/>
		<path fill="#1D1D1B" d="M36.6,39.4c2.6,0,4.7-2.1,4.7-4.7S39.2,30,36.6,30c-2.6,0-4.7,2.1-4.7,4.7S34,39.4,36.6,39.4z M36.6,32.1
			c1.4,0,2.5,1.1,2.5,2.6c0,1.4-1.1,2.5-2.5,2.5s-2.5-1.1-2.5-2.5C34.1,33.3,35.2,32.1,36.6,32.1z"/>
	</g>
	<path fill="#1D1D1B" d="M179.4,30l-6.1-5.9c-0.6-0.6-1.4-0.9-2.3-0.9c-0.9,0-1.8,0.4-2.4,1l-4,4.1l1.6,1.5l4-4.1
		c0.2-0.2,0.5-0.3,0.8-0.3c0.3,0,0.6,0.1,0.8,0.3l6.1,5.9c0.2,0.2,0.3,0.5,0.4,0.8c0,0.3-0.1,0.6-0.3,0.8l-11.7,12
		c-0.1,0.1-0.2,0.2-0.3,0.2l-0.6,0.6l-2.9-2.8l3.4-3.4c0.6-0.6,1-1.5,1-2.4c0-0.9-0.4-1.7-1-2.4l-6.1-5.9c-0.6-0.6-1.5-1-2.3-1
		c-0.9,0-1.8,0.4-2.4,1l-11.7,12c-0.6,0.6-1,1.5-0.9,2.4c0,0.9,0.4,1.7,1,2.4l6.1,5.9c0.6,0.6,1.4,0.9,2.3,0.9c0.9,0,1.8-0.4,2.4-1
		l6.8-7l2.4,2.3c0.6,0.4,1.3,0.7,2.1,0.7c0.9,0,1.8-0.4,2.4-1l11.7-12c0.6-0.6,1-1.5,1-2.4C180.4,31.5,180.1,30.6,179.4,30z
		 M160.9,41.6l-2.9-2.8l0.1-0.1c0-0.1,0-0.2,0-0.3c0-0.3,0.1-0.6,0.3-0.8l0.5-0.6l-1.6-1.5l-0.5,0.6c-0.6,0.6-1,1.5-1,2.4
		c0,0.9,0.4,1.7,1,2.4l0.6,0.6l0,0l1.9,1.8l-6.8,7c-0.2,0.2-0.5,0.3-0.8,0.3c-0.3,0-0.6-0.1-0.8-0.3l-6.1-5.9
		c-0.2-0.2-0.3-0.5-0.3-0.8c0-0.3,0.1-0.6,0.3-0.8l11.7-12c0.4-0.4,1.2-0.4,1.6,0l6.1,5.9c0.2,0.2,0.3,0.5,0.3,0.8
		c0,0.3-0.1,0.6-0.3,0.8L160.9,41.6z"/>
	<path fill="#1D1D1B" d="M296.6,29.2c-0.4-0.2-0.8-0.1-1.1,0.2l-7.7,6.8v-5.7c0-1.6-1.3-2.8-2.8-2.8h-19.2c-1.6,0-2.8,1.3-2.8,2.8
		v14.8c0,1.6,1.3,2.8,2.8,2.8h19.2c1.6,0,2.8-1.3,2.8-2.8v-5.8l7.7,7.1c0.3,0.3,0.8,0.4,1.1,0.2c0.4-0.2,0.6-0.5,0.6-1V30.2
		C297.2,29.8,297,29.4,296.6,29.2z M285.7,46H265V29.8h20.7V46z M295.1,43.4l-6-5.6l6-5.3V43.4z"/>
	<g>
		<path fill="#1D1D1B" d="M508,47.1c1,1,2.5,1,3.5,0c1-1,1-2.5,0-3.5c-1-1-2.5-1-3.5,0C507.1,44.6,507.1,46.2,508,47.1z M509,44.6
			c0.4-0.4,1.1-0.4,1.5,0c0.4,0.4,0.4,1.1,0,1.5c-0.4,0.4-1.1,0.4-1.5,0C508.6,45.7,508.6,45,509,44.6z"/>
		<path fill="#1D1D1B" d="M530.2,33.8c2.3-2.5,2.3-6.4,0-8.7c-2.3-2.3-6.1-2.3-8.7,0l-0.4-0.4c-0.3-0.3-0.9-0.3-1.2,0
			c-0.3,0.3-0.3,0.9,0,1.2l0.4,0.4l-1.4,1.4l-0.4-0.4c-0.3-0.3-0.9-0.3-1.2,0c-0.3,0.3-0.3,0.9,0,1.2l0.4,0.4l-11,11l0,0
			c0,0,0,0,0,0c-0.9,0.9-1.4,1.9-1.7,3l0,0l0,0.1c0,0,0,0,0,0l-1.9,9.1l9.3-2l0,0c1.1-0.2,2.2-0.8,3-1.7c0,0,0,0,0,0l0,0l11-11
			l0.4,0.4c0.3,0.3,0.9,0.3,1.2,0c0.3-0.3,0.3-0.9,0-1.2l-0.4-0.4l1.4-1.4l0.4,0.4c0.3,0.3,0.9,0.3,1.2,0c0.3-0.3,0.3-0.9,0-1.2
			L530.2,33.8z M514,47.6C514,47.6,514,47.6,514,47.6c-0.6,0.5-1.2,0.9-1.9,1.1l0,0l0,0c-0.1,0-0.3,0.1-0.4,0.1l-0.2,0v0l-6.3,1.3
			l0.5-2.4l0.9-4.1c0,0,0-0.1,0-0.1l0-0.2l0,0c0.2-0.7,0.6-1.4,1.1-1.9h0l1.4-1.4l6.2,6.2L514,47.6z M516.6,44.9l-6.2-6.2l8.4-8.4
			l6.2,6.2L516.6,44.9z M526.3,35.2l-6.2-6.2l1.4-1.4l6.2,6.2L526.3,35.2z M529,32.5l-6.2-6.2c1.9-1.6,4.6-1.6,6.2,0
			C530.6,28,530.6,30.7,529,32.5z"/>
	</g>
	<g>
		<path fill="#1D1D1B" d="M1122.2,39.4c0.4-0.1,0.8-0.3,1.2-0.5c1.5-0.7,1.6-1.7,1.5-2.3c0-0.4-0.3-1.7-0.3-1.7
			c-0.1-0.3-0.4-1.4-1.9-1.7c-0.3-0.1-0.6-0.1-1.1-0.1c-0.2,0-0.4,0-0.6,0c-0.1,0-0.2,0-0.3,0c-0.2-0.4-0.4-0.8-0.7-1.1
			c0.1-0.1,0.1-0.2,0.1-0.2c0.2-0.4,0.5-0.8,0.6-1.1c0.2-0.5,0.7-1.8-0.3-2.8c-0.3-0.3-1.2-1-1.3-1.1c-0.4-0.3-0.8-0.4-1.3-0.4
			c-1,0-1.7,0.6-2.6,1.4c-0.1,0.1-0.1,0.1-0.2,0.2c-0.4-0.2-0.8-0.3-1.2-0.4c0-0.1,0-0.2,0-0.3c-0.1-0.4-0.1-0.9-0.2-1.3
			c-0.4-1.7-1.6-1.9-2.1-1.9c-0.2,0-0.6,0-0.9,0c-0.2,0-0.6,0-0.9,0c-0.5,0-1.6,0.3-2.1,1.9c-0.1,0.4-0.2,0.8-0.2,1.3
			c0,0.1,0,0.2,0,0.3c-0.4,0.1-0.8,0.3-1.2,0.4c-0.1-0.1-0.1-0.1-0.2-0.2c-0.8-0.7-1.6-1.4-2.6-1.4c-0.5,0-0.9,0.2-1.3,0.4
			c-0.1,0.1-1,0.8-1.3,1.1c-0.3,0.3-1,1.3-0.3,2.8c0.2,0.4,0.4,0.8,0.6,1.1c0,0.1,0.1,0.2,0.1,0.2c-0.2,0.3-0.5,0.7-0.7,1.1
			c-0.1,0-0.2,0-0.3,0c-0.2,0-0.4,0-0.6,0c-0.4,0-0.8,0-1.1,0.1c-1.5,0.3-1.8,1.4-1.9,1.7c0,0-0.3,1.3-0.3,1.7
			c0,0.6,0.1,1.6,1.5,2.3c0.4,0.2,0.8,0.3,1.2,0.5c0.1,0,0.2,0.1,0.3,0.1c0.1,0.4,0.1,0.9,0.2,1.3c-0.1,0.1-0.1,0.1-0.2,0.2
			c-0.3,0.3-0.7,0.6-1,0.8c-1.2,1.2-0.8,2.4-0.6,2.8c0,0,0.6,1.1,0.9,1.5c0.4,0.6,1.1,0.9,1.8,0.9c0.7,0,1.4-0.3,2.1-0.6
			c0.1,0,0.2-0.1,0.3-0.1c0.3,0.3,0.7,0.6,1,0.8c0,0.1,0,0.2-0.1,0.3c-0.1,0.4-0.2,0.9-0.2,1.3c-0.1,1.7,0.9,2.3,1.3,2.5
			c0.2,0.1,1.3,0.5,1.6,0.6c0.2,0.1,0.4,0.1,0.6,0.1c1.4,0,2.1-1.2,2.7-2.3c0-0.1,0.1-0.2,0.1-0.2c0.2,0,0.4,0,0.6,0s0.4,0,0.6,0
			c0,0.1,0.1,0.2,0.1,0.2c0.6,1.1,1.3,2.3,2.7,2.3c0.2,0,0.4,0,0.6-0.1c0.3-0.1,1.4-0.5,1.6-0.6c0.4-0.2,1.5-0.8,1.3-2.5
			c0-0.4-0.1-0.9-0.2-1.3c0-0.1,0-0.2-0.1-0.3c0.3-0.3,0.7-0.6,1-0.8c0.1,0,0.2,0.1,0.3,0.1c0.7,0.3,1.4,0.6,2.1,0.6
			c0.7,0,1.4-0.3,1.8-0.9c0.3-0.4,0.9-1.5,0.9-1.5c0.2-0.4,0.6-1.6-0.6-2.8c-0.3-0.3-0.6-0.6-1-0.8c-0.1,0-0.1-0.1-0.2-0.2
			c0.1-0.4,0.2-0.9,0.2-1.3C1122,39.4,1122.1,39.4,1122.2,39.4z M1121.8,43.6c-0.1,0.2-0.6,1.1-0.7,1.3c0,0.1-0.1,0.1-0.2,0.1
			c-0.6,0-2.2-0.8-2.8-0.8c-0.1,0-0.2,0-0.2,0.1c-0.3,0.4-1.8,1.7-2.3,1.9c-0.5,0.3,0.6,3.1,0.1,3.3c-0.2,0.1-1.2,0.4-1.4,0.5
			c0,0,0,0,0,0c-0.5,0-1.4-2.6-1.9-2.6c0,0,0,0,0,0c-0.2,0-0.9,0.1-1.5,0.1s-1.2,0-1.5-0.1c0,0,0,0,0,0c-0.5,0-1.4,2.6-2,2.6
			c0,0,0,0,0,0c-0.2-0.1-1.2-0.4-1.4-0.5c-0.5-0.2,0.6-3,0.1-3.3c-0.4-0.2-1.9-1.5-2.3-1.9c0,0-0.1-0.1-0.2-0.1
			c-0.6,0-2.2,0.8-2.8,0.8c-0.1,0-0.2,0-0.2-0.1c-0.1-0.2-0.6-1.1-0.7-1.3c-0.3-0.5,2.4-1.9,2.2-2.4c-0.2-0.5-0.5-2.4-0.5-2.9
			c0-0.5-2.9-1-2.9-1.5c0-0.2,0.2-1.2,0.3-1.5c0-0.2,0.5-0.2,1-0.2c0.4,0,0.8,0,1.2,0c0.5,0,1,0,1-0.2c0.2-0.5,1.2-2.2,1.5-2.6
			c0.3-0.4-1.6-2.7-1.2-3c0.2-0.2,0.9-0.8,1.1-1c0,0,0.1,0,0.1,0c0.5,0,2,1.8,2.6,1.8c0,0,0.1,0,0.1,0c0.4-0.3,2.3-0.9,2.8-1
			c0.5-0.1,0.5-3.1,1-3.1c0.1,0,0.4,0,0.7,0c0.3,0,0.6,0,0.7,0c0.5,0,0.5,3,1,3.1c0.5,0.1,2.4,0.8,2.8,1c0,0,0.1,0,0.1,0
			c0.5,0,2-1.8,2.6-1.8c0,0,0.1,0,0.1,0c0.2,0.2,1,0.8,1.1,1c0.4,0.4-1.6,2.6-1.2,3c0.3,0.4,1.3,2.1,1.5,2.6c0.1,0.2,0.5,0.2,1,0.2
			c0.4,0,0.8,0,1.2,0c0.5,0,1,0,1,0.2c0.1,0.2,0.2,1.2,0.3,1.5c0,0.5-2.9,1-2.9,1.5c0,0.5-0.3,2.5-0.5,2.9
			C1119.4,41.7,1122.1,43.2,1121.8,43.6z"/>
		<path fill="#1D1D1B" d="M1110.8,31.8c-3.4,0-6.1,2.7-6.1,6.1s2.7,6.1,6.1,6.1s6.1-2.7,6.1-6.1
			C1116.9,34.5,1114.2,31.8,1110.8,31.8z M1110.8,42.1c-2.3,0-4.2-1.9-4.2-4.2c0-2.3,1.9-4.2,4.2-4.2c2.3,0,4.2,1.9,4.2,4.2
			C1115,40.2,1113.1,42.1,1110.8,42.1z"/>
	</g>
	<g>
		<path fill="#1D1D1B" d="M1354.5,30.4c-0.5-0.4-1.3-0.3-1.6,0.2c-0.4,0.5-0.3,1.3,0.2,1.6c2.1,1.6,3.4,4.1,3.4,6.7
			c0,4.6-3.7,8.3-8.3,8.3c-4.6,0-8.3-3.7-8.3-8.3c0-2.6,1.2-5,3.3-6.6c0.5-0.4,0.6-1.1,0.2-1.7c-0.4-0.5-1.1-0.6-1.7-0.2
			c-2.7,2-4.2,5.1-4.2,8.5c0,5.9,4.8,10.7,10.7,10.7c5.9,0,10.7-4.8,10.7-10.7C1358.8,35.7,1357.2,32.4,1354.5,30.4z"/>
		<path fill="#1D1D1B" d="M1348.2,39.2c0.7,0,1.2-0.5,1.2-1.2V27.3c0-0.7-0.5-1.2-1.2-1.2s-1.2,0.5-1.2,1.2V38
			C1347,38.6,1347.5,39.2,1348.2,39.2z"/>
	</g>
	<g>
		<path fill="#1D1D1B" d="M1471.2,43.6c-1.6,1.7-3.8,2.7-6.1,2.7c-4.6,0-8.3-3.7-8.3-8.3s3.7-8.3,8.3-8.3c2.3,0,4.4,0.9,6,2.6
			c0.5,0.5,1.2,0.5,1.7,0c0.5-0.5,0.5-1.2,0-1.7c-2-2.1-4.8-3.3-7.7-3.3c-5.9,0-10.7,4.8-10.7,10.7s4.8,10.7,10.7,10.7
			c3,0,5.8-1.2,7.8-3.4c0.4-0.5,0.4-1.2-0.1-1.7S1471.6,43.1,1471.2,43.6z"/>
		<path fill="#1D1D1B" d="M1475.7,33.8c-0.5-0.5-1.2-0.5-1.7,0c-0.5,0.5-0.5,1.2,0,1.7l1.2,1.2h-9.2c-0.7,0-1.2,0.5-1.2,1.2
			s0.5,1.2,1.2,1.2h9.2l-1.2,1.2c-0.5,0.5-0.5,1.2,0,1.7c0.2,0.2,0.5,0.3,0.8,0.3c0.3,0,0.6-0.1,0.8-0.3l4.1-4.1L1475.7,33.8z"/>
	</g>
	<path fill="#1D1D1B" d="M1000.7,36.7h-7.4v-7.4c0-0.7-0.5-1.2-1.2-1.2c-0.7,0-1.2,0.5-1.2,1.2v7.4h-7.4c-0.7,0-1.2,0.5-1.2,1.2
		s0.5,1.2,1.2,1.2h7.4v7.4c0,0.7,0.5,1.2,1.2,1.2c0.7,0,1.2-0.5,1.2-1.2v-7.4h7.4c0.7,0,1.2-0.5,1.2-1.2S1001.4,36.7,1000.7,36.7z"
		/>
	<path fill="#1D1D1B" d="M880.4,43.1l-5.2-5.2l5.2-5.2c0.5-0.5,0.5-1.2,0-1.7s-1.2-0.5-1.7,0l-5.2,5.2l-5.2-5.2
		c-0.5-0.5-1.2-0.5-1.7,0s-0.5,1.2,0,1.7l5.2,5.2l-5.2,5.2c-0.5,0.5-0.5,1.2,0,1.7c0.2,0.2,0.5,0.3,0.8,0.3s0.6-0.1,0.8-0.3l5.2-5.2
		l5.2,5.2c0.2,0.2,0.5,0.3,0.8,0.3s0.6-0.1,0.8-0.3C880.8,44.4,880.8,43.6,880.4,43.1z"/>
	<path fill="#1D1D1B" d="M646.1,40.3c0-1-0.5-1.9-1.3-2.3c0.1-0.3,0.2-0.6,0.2-1c0-1.4-0.9-2.4-2-2.4h-2.7c1.5-1.9,2.2-3.5,2.1-4.8
		c-0.3-2.4-2.2-3.1-3.2-3.2c-0.2,0-0.5,0.1-0.6,0.3c-0.2,0.2-0.2,0.4-0.2,0.7c0,0.1,0.1,1.2-1,2.5c-0.2,0.2-0.4,0.4-0.8,0.6
		c-0.6,0.3-1.3,0.8-2.3,1.7c-1.2,1.1-3,2.5-3.8,3.1h-3.7c-0.2,0-0.4,0.1-0.6,0.2c-0.2,0.2-0.2,0.4-0.2,0.6l0,8.4
		c0,0.5,0.4,0.8,0.8,0.8h3.3c1.4,2.1,3.4,3.3,5.4,3.3h3.2c0.1,0,0.1,0,0.2,0c0.1,0,0.2,0,0.3,0h2.6c1.1,0,2-1.1,2-2.4
		c0-0.3,0-0.6-0.1-0.9c0.8-0.3,1.3-1.2,1.3-2.3c0-0.3,0-0.6-0.1-0.9C645.6,42.2,646.1,41.4,646.1,40.3z M643,36c0.3,0,0.6,0.4,0.6,1
		c0,0.6-0.3,1-0.6,1h-4.5c-0.3,0-0.6-0.4-0.6-1c0-0.6,0.3-1,0.6-1H643z M637.8,47.7h-2.2c-1.9,0-3.5-1.5-4.5-3
		c-0.1-0.2-0.3-0.4-0.5-0.4h-3.2l0-7.4h3.4c0.1,0,0.2,0,0.3-0.1c0.6-0.5,2.8-2.1,4.1-3.3c0.9-0.8,1.5-1.2,2.1-1.5
		c0.4-0.3,0.8-0.5,1.1-0.8c1-1.1,1.3-2.2,1.4-2.9c0.5,0.2,1.2,0.6,1.3,1.8c0.1,1.1-0.9,2.8-2.7,4.8c-0.7,0.1-1.2,0.6-1.5,1.3
		c-0.1,0.1-0.2,0.3-0.1,0.4c0,0.2-0.1,0.4-0.1,0.6c0,0.2,0,0.4,0.1,0.6c-0.1,1.3-0.7,3.2-3.1,3.5c-0.3,0-0.5,0.3-0.4,0.6
		c0,0.3,0.3,0.5,0.5,0.5c0,0,0.1,0,0.1,0c1.1-0.2,1.9-0.6,2.5-1.1c0.2,0.4,0.4,0.8,0.8,1.1c-0.3,0.4-0.4,0.8-0.4,1.3
		c0,0.9,0.5,1.7,1.2,2c0,0.1-0.1,0.2-0.1,0.3c-0.1,0.3-0.2,0.6-0.2,0.9C637.6,47.1,637.6,47.4,637.8,47.7z M641.9,47.7h-2.6
		c-0.3,0-0.6-0.4-0.6-1c0-0.1,0-0.3,0.1-0.4c0.1-0.2,0.2-0.4,0.4-0.5c0,0,0.1-0.1,0.1-0.1c0,0,0,0,0.1,0h2.6c0.3,0,0.6,0.4,0.6,1
		C642.5,47.2,642.1,47.7,641.9,47.7z M643,44.5h-4.5c-0.3,0-0.6-0.4-0.6-1c0-0.6,0.3-1,0.6-1h4.5c0.3,0,0.6,0.5,0.6,1
		C643.6,44.1,643.3,44.5,643,44.5z M644.2,41.4h-1.1c0,0,0,0,0,0h-4.5c0,0,0,0,0,0h-0.5c-0.3,0-0.6-0.4-0.6-1c0-0.6,0.3-1,0.6-1h6.1
		c0.3,0,0.6,0.4,0.6,1C644.8,40.9,644.5,41.4,644.2,41.4z"/>
	<path fill="#1D1D1B" d="M764.8,31c0-0.5-0.4-0.8-0.8-0.8h-3.3c-1.4-2.1-3.4-3.3-5.4-3.3h-3.2c-0.1,0-0.1,0-0.2,0
		c-0.1,0-0.2,0-0.3,0H749c-1.1,0-2,1.1-2,2.4c0,0.3,0,0.6,0.1,0.9c-0.8,0.3-1.3,1.2-1.3,2.3c0,0.3,0,0.6,0.1,0.9
		c-0.8,0.3-1.3,1.2-1.3,2.3c0,1,0.5,1.9,1.3,2.3c-0.1,0.3-0.2,0.6-0.2,1c0,1.4,0.9,2.4,2,2.4h2.7c-1.5,1.9-2.2,3.5-2.1,4.8
		c0.3,2.4,2.2,3.1,3.2,3.2c0.2,0,0.5-0.1,0.6-0.3c0.2-0.2,0.2-0.4,0.2-0.7c0-0.1-0.1-1.2,1-2.5c0.2-0.2,0.4-0.4,0.8-0.6
		c0.6-0.3,1.3-0.8,2.3-1.7c1.2-1.1,3-2.5,3.8-3.1h3.7c0.2,0,0.4-0.1,0.6-0.2c0.2-0.2,0.2-0.4,0.2-0.6L764.8,31z M749,28.1h2.6
		c0.3,0,0.6,0.4,0.6,1c0,0.1,0,0.3-0.1,0.4c-0.1,0.2-0.2,0.4-0.4,0.5c0,0-0.1,0.1-0.1,0.1c0,0,0,0-0.1,0H749c-0.3,0-0.6-0.4-0.6-1
		C748.4,28.6,748.7,28.1,749,28.1z M747.8,31.3h4.5c0.3,0,0.6,0.4,0.6,1c0,0.6-0.3,1-0.6,1h-4.5c-0.3,0-0.6-0.5-0.6-1
		C747.2,31.8,747.6,31.3,747.8,31.3z M746.7,36.6c-0.3,0-0.6-0.4-0.6-1c0-0.6,0.3-1,0.6-1h1.1c0,0,0,0,0,0h4.5c0,0,0,0,0,0h0.5
		c0.3,0,0.6,0.4,0.6,1c0,0.6-0.3,1-0.6,1H746.7z M747.8,39.8c-0.3,0-0.6-0.4-0.6-1c0-0.6,0.3-1,0.6-1h4.5c0.3,0,0.6,0.4,0.6,1
		c0,0.6-0.3,1-0.6,1H747.8z M760,38.9c-0.1,0-0.2,0-0.3,0.1c-0.6,0.5-2.8,2.1-4.1,3.3c-0.9,0.8-1.5,1.2-2.1,1.5
		c-0.4,0.3-0.8,0.5-1.1,0.8c-1,1.1-1.3,2.2-1.4,2.9c-0.5-0.2-1.2-0.6-1.3-1.8c-0.1-1.1,0.9-2.8,2.7-4.8c0.7-0.1,1.2-0.6,1.5-1.3
		c0.1-0.1,0.2-0.3,0.1-0.4c0-0.2,0.1-0.4,0.1-0.6c0-0.2,0-0.4-0.1-0.6c0.1-1.3,0.7-3.2,3.1-3.5c0.3,0,0.5-0.3,0.4-0.6
		c0-0.3-0.3-0.5-0.5-0.5c0,0-0.1,0-0.1,0c-1.1,0.2-1.9,0.6-2.5,1.1c-0.2-0.4-0.4-0.8-0.8-1.1c0.3-0.4,0.4-0.8,0.4-1.3
		c0-0.9-0.5-1.7-1.2-2c0-0.1,0.1-0.2,0.1-0.3c0.1-0.3,0.2-0.6,0.2-0.9c0-0.3-0.1-0.6-0.2-0.9h2.2c1.9,0,3.5,1.5,4.5,3
		c0.1,0.2,0.3,0.4,0.5,0.4h3.2l0,7.4H760z"/>
	<path fill="#1D1D1B" d="M1583.9,37.9l5.8-4.9c0.5-0.4,0.6-1.2,0.1-1.7c-0.4-0.5-1.2-0.6-1.7-0.1l-7.9,6.7l7.9,6.7
		c0.2,0.2,0.5,0.3,0.8,0.3c0.3,0,0.7-0.1,0.9-0.4c0.4-0.5,0.4-1.2-0.1-1.7L1583.9,37.9z"/>
	<path fill="#1D1D1B" d="M1245.9,51l-10-2.9v-3.9v-0.1c1.1-1.5,2-3.5,2.3-5.7c0.3-0.2,0.6-0.5,0.7-0.8c0.8-1.6,1.3-3.6,1.3-5.6
		c0-6.2-4.6-11.1-10.7-11.1c-6,0-10.7,4.9-10.7,11.3c0,1.2,0.2,2.5,0.5,3.7c0,0.1,0.2,0.5,0.6,0.8c0.1,3.3,1.3,6.2,3.2,8.2v3.2
		l-9.9,2.9c-0.8,0.2-1.9,0.6-2.9,1.4c0.4,0.5,0.8,1,1.3,1.5c1-0.8,2.1-1,2.3-1l6-1.8c2.5,1.1,7.9,3.7,9.4,3.7c1.7,0,8.1-3.1,9.5-3.9
		l6.7,2c0.1,0,1.1,0.2,2,0.9c0.4-0.5,0.9-1,1.3-1.5C1247.7,51.6,1246.7,51.2,1245.9,51z M1220.9,32.2c0-5.2,3.8-9.3,8.7-9.3
		c5,0,8.7,3.9,8.7,9.2c0,1.4-0.3,2.9-0.9,4.2c-2.8-2-4.1-6.1-4.1-6.2c-0.1-0.4-0.5-0.7-0.9-0.7c-0.4,0-0.8,0.2-1,0.6
		c-0.4,0.9-1.3,1.6-2.3,2.2c0-0.1,0-0.2-0.1-0.2c-0.1-0.3-0.4-0.6-0.7-0.6c-0.3-0.1-0.7,0-0.9,0.3c-1.6,1.6-4.8,2.8-6,3.1
		C1221,34,1220.9,33.2,1220.9,32.2z M1222.1,36.7c1-0.3,3.1-1.1,4.8-2.2c0,0.1,0.1,0.1,0.1,0.2c0.3,0.3,0.7,0.4,1.1,0.3
		c0.3-0.1,2.3-0.8,3.7-2.3c0.7,1.6,2.2,4,4.3,5.5c-0.6,4.4-3.6,7.7-7,7.7C1225.4,45.7,1222.3,41.7,1222.1,36.7z M1229.1,53
		c-0.6,0-3.5-1.2-6.4-2.5l1.8-0.5c0.4-0.1,0.7-0.5,0.7-1v-2.3c1.2,0.7,2.5,1.1,3.9,1.1c1.6,0,3.3-0.6,4.6-1.6v2.8
		c0,0.4,0.3,0.8,0.7,1l1.2,0.3C1233.4,51.4,1229.8,53,1229.1,53z"/>
</g>
<g>
	<g>
		<g>
			<path fill="#1D1D1B" d="M1867.3,134.1c1-1.9,0.7-4.2-0.8-5.7c-0.9-0.9-2.1-1.4-3.4-1.4c-0.4,0-0.7,0-1,0.1
				c-0.2-0.4-0.5-0.7-0.8-1c-1.2-1.2-2.7-1.8-4.3-1.8c-1.6,0-3.2,0.6-4.3,1.8c-2,2-2.4,5.2-0.9,7.6l-0.5,2.1c0,0.1,0,0.3,0.1,0.4
				c0.1,0.1,0.3,0.2,0.4,0.1l2.2-0.6c0.9,0.5,1.9,0.8,3,0.8l0,0c1.2,0,2.3-0.3,3.2-0.9c0.8,0.7,1.9,1,3,1c0.9,0,1.8-0.2,2.5-0.7
				l1.6,0.4c0.1,0,0.3,0,0.4-0.1c0.1-0.1,0.2-0.3,0.1-0.4L1867.3,134.1z M1859.5,135c-0.8,0.4-1.7,0.7-2.6,0.7c-1,0-1.9-0.3-2.7-0.8
				c-0.1,0-0.1-0.1-0.2-0.1c0,0-0.1,0-0.1,0l-1.7,0.4l0.4-1.6c0-0.1,0-0.2-0.1-0.3c-1.4-2.1-1.1-4.9,0.7-6.7c1-1,2.3-1.5,3.7-1.5
				c1.4,0,2.7,0.5,3.7,1.5c0.2,0.2,0.4,0.4,0.6,0.7c0.2,0.2,0.3,0.5,0.4,0.8c0.3,0.7,0.5,1.5,0.5,2.3c0,1.4-0.5,2.7-1.5,3.7
				c-0.1,0.1-0.3,0.3-0.4,0.4C1860,134.7,1859.7,134.8,1859.5,135z M1866.5,134.1l0.3,1.1l-1.1-0.3c-0.1,0-0.2,0-0.3,0.1
				c-0.7,0.4-1.4,0.7-2.2,0.7c-0.8,0-1.6-0.2-2.2-0.7c0.1-0.1,0.2-0.2,0.4-0.3c1.2-1.2,1.8-2.7,1.8-4.3c0-0.9-0.2-1.7-0.5-2.5
				c0.2,0,0.4,0,0.6,0c1.1,0,2.1,0.4,2.8,1.2c1.3,1.3,1.5,3.3,0.6,4.8C1866.4,133.9,1866.4,134,1866.5,134.1z"/>
		</g>
		<g>
			<circle fill="#1D1D1B" cx="1854.4" cy="130.6" r="0.9"/>
			<circle fill="#1D1D1B" cx="1856.9" cy="130.6" r="0.9"/>
			<circle fill="#1D1D1B" cx="1859.4" cy="130.6" r="0.9"/>
		</g>
	</g>
	<g>
		<path fill="#1D1D1B" d="M1913.2,136.4c-3.3,0-6-2.7-6-6c0-3.3,2.7-6,6-6s6,2.7,6,6C1919.1,133.7,1916.5,136.4,1913.2,136.4z
			 M1913.2,125.6c-2.7,0-4.8,2.2-4.8,4.8c0,2.7,2.2,4.8,4.8,4.8s4.8-2.2,4.8-4.8C1918,127.7,1915.8,125.6,1913.2,125.6z"/>
		<path fill="#1D1D1B" d="M1914.1,133.2c-0.2,0-0.3-0.1-0.5-0.2l-2-2l2.7-3.2c0.2-0.3,0.6-0.3,0.9-0.1c0.3,0.2,0.3,0.6,0.1,0.9
			l-2,2.3l1.2,1.2c0.2,0.2,0.2,0.7,0,0.9C1914.5,133.2,1914.3,133.2,1914.1,133.2z"/>
	</g>
	<g>
		<g>
			<path fill="#1D1D1B" d="M1805.5,135.3c-3.2,0-6.2-1.8-7.6-4.7l-0.1-0.2l0.1-0.2c1.5-2.9,4.4-4.7,7.6-4.7s6.2,1.8,7.6,4.7l0.1,0.2
				l-0.1,0.2C1811.7,133.5,1808.8,135.3,1805.5,135.3z M1798.8,130.4c1.4,2.5,3.9,4,6.8,4s5.4-1.5,6.8-4c-1.4-2.5-3.9-4-6.8-4
				S1800.1,127.9,1798.8,130.4z"/>
		</g>
		<g>
			<path fill="#1D1D1B" d="M1805.5,134.6c-2.3,0-4.2-1.9-4.2-4.2s1.9-4.2,4.2-4.2s4.2,1.9,4.2,4.2S1807.9,134.6,1805.5,134.6z
				 M1805.5,127.1c-1.8,0-3.3,1.5-3.3,3.3s1.5,3.3,3.3,3.3s3.3-1.5,3.3-3.3S1807.4,127.1,1805.5,127.1z"/>
		</g>
		<g>
			<circle fill="#1D1D1B" cx="1805.5" cy="130.4" r="1.3"/>
		</g>
	</g>
	<g>
		<path fill="#1D1D1B" d="M1751.7,123.2c-4,0-7.2,3.2-7.2,7.2c0,4,3.2,7.2,7.2,7.2c4,0,7.2-3.2,7.2-7.2
			C1758.9,126.5,1755.7,123.2,1751.7,123.2z M1751.7,136.9c-1.8,0-3.4-0.7-4.6-1.9l1.6-0.5c0.8,0.3,2.4,1.1,2.9,1.1
			c0.5,0,2.5-0.9,2.9-1.2l1.8,0.5C1755.2,136.1,1753.5,136.9,1751.7,136.9z M1751,129.4C1751,129.4,1751,129.4,1751,129.4
			c0.1,0.2,0.3,0.2,0.4,0.2c0.1,0,0.7-0.3,1.1-0.7c0.2,0.5,0.7,1.2,1.3,1.7c-0.2,1.4-1.1,2.4-2.2,2.4c-1.2-0.1-2.1-1.3-2.2-2.8
			C1749.8,129.9,1750.4,129.7,1751,129.4z M1749.2,129.5c-0.1-0.3-0.1-0.5-0.1-0.8c0-1.6,1.2-2.8,2.7-2.8c1.5,0,2.7,1.2,2.7,2.8
			c0,0.4-0.1,0.9-0.3,1.3c-0.9-0.6-1.3-1.9-1.3-1.9c0-0.1-0.2-0.2-0.3-0.2s-0.3,0.1-0.3,0.2c-0.1,0.3-0.4,0.5-0.7,0.7
			c0,0,0-0.1,0-0.1c0-0.1-0.1-0.2-0.2-0.2c-0.1,0-0.2,0-0.3,0.1C1750.5,129,1749.5,129.4,1749.2,129.5z M1750.4,133.8v-0.7
			c0.4,0.2,0.8,0.3,1.2,0.3c0.5,0,1-0.2,1.4-0.5v0.9c0,0.1,0.1,0.3,0.2,0.3l0.4,0.1c-0.7,0.3-1.8,0.8-2,0.8c-0.2,0-1.1-0.4-2-0.8
			l0.5-0.2C1750.3,134.1,1750.4,134,1750.4,133.8z M1756.8,134.4l-3.1-0.9v-1.2v0c0.3-0.5,0.6-1.1,0.7-1.7c0.1-0.1,0.2-0.2,0.2-0.3
			c0.3-0.5,0.4-1.1,0.4-1.7c0-1.9-1.4-3.4-3.3-3.4c-1.8,0-3.3,1.5-3.3,3.5c0,0.4,0.1,0.8,0.2,1.1c0,0,0.1,0.2,0.2,0.3
			c0,1,0.4,1.9,1,2.5v1l-3,0.9c0,0,0,0,0,0c-0.9-1.1-1.4-2.5-1.4-4.1c0-3.6,2.9-6.5,6.5-6.5s6.5,2.9,6.5,6.5
			C1758.2,131.9,1757.7,133.3,1756.8,134.4C1756.8,134.4,1756.8,134.4,1756.8,134.4z"/>
	</g>
	<g>
		<g>
			<g id="g104_28_" transform="translate(280.6885,392.415)">
				<path id="path106_28_" fill="#000100" d="M1789.5-264.4c0-0.5,0.2-1,0.5-1.3c0.3-0.3,0.7-0.5,1.2-0.5c0.5,0,0.9,0.2,1.2,0.5
					c0.3,0.3,0.5,0.7,0.5,1.3v1.7h0.1c0.5-0.9,1.2-1.7,2-2.4c0.8-0.7,1.7-1.1,2.6-1.1c0.5,0,1,0.2,1.3,0.5c0.4,0.3,0.6,0.7,0.6,1.2
					c0,0.6-0.2,1-0.6,1.3c-0.4,0.3-1,0.5-1.8,0.7c-0.8,0.2-1.3,0.4-1.5,0.5c-1.8,1-2.8,2.7-2.8,5.1v10c0,0.6-0.2,1-0.5,1.3
					c-0.3,0.3-0.7,0.5-1.2,0.5c-0.5,0-0.9-0.2-1.2-0.5c-0.3-0.3-0.5-0.8-0.5-1.3V-264.4z"/>
			</g>
			<g id="g108_28_" transform="translate(280.6885,392.415)">
				<path fill="#000100" d="M1791.2-244.9c-0.6,0-1-0.2-1.4-0.6c-0.4-0.4-0.6-0.9-0.6-1.6v-17.4c0-0.6,0.2-1.1,0.6-1.5
					c0.4-0.4,0.8-0.6,1.4-0.6c0.5,0,1,0.2,1.4,0.5c0.4,0.4,0.6,0.9,0.6,1.5v0.9c0.4-0.6,1-1.2,1.6-1.8c0.9-0.8,1.8-1.2,2.8-1.2
					c0,0,0,0,0,0c0.6,0,1.1,0.2,1.5,0.6c0.5,0.4,0.7,0.9,0.7,1.5c0,0.7-0.2,1.2-0.7,1.5c-0.4,0.3-1,0.5-1.8,0.7
					c-0.7,0.2-1.2,0.3-1.4,0.5c-1.8,1-2.6,2.6-2.6,4.9v10c0,0.6-0.2,1.1-0.6,1.5C1792.2-245,1791.7-244.9,1791.2-244.9z
					 M1791.1-265.9c-0.4,0-0.7,0.1-1,0.4c-0.3,0.3-0.4,0.6-0.4,1.1v17.4c0,0.5,0.1,0.9,0.4,1.1c0.3,0.3,0.6,0.4,1,0.4
					c0.4,0,0.7-0.1,0.9-0.4c0.3-0.2,0.4-0.6,0.4-1.1v-10c0-2.5,1-4.3,2.9-5.4c0.2-0.1,0.7-0.3,1.6-0.5c0.7-0.2,1.3-0.4,1.7-0.7
					c0.3-0.2,0.5-0.6,0.5-1c0-0.4-0.2-0.7-0.5-1c-0.3-0.3-0.7-0.4-1.2-0.4c-0.8,0-1.6,0.4-2.4,1.1c-0.8,0.7-1.4,1.5-1.9,2.3
					l-0.1,0.1h-0.5v-2c0-0.5-0.1-0.8-0.4-1.1C1791.8-265.7,1791.5-265.9,1791.1-265.9z"/>
			</g>
		</g>
		<g>
			<g id="g112_28_" transform="translate(292.5103,386.2129)">
				<path id="path114_28_" fill="#000100" d="M1791.9-250.7h11.3c0-1.9-0.5-3.4-1.5-4.6c-1-1.1-2.3-1.7-4-1.8
					c-1.7,0-3.1,0.6-4.1,1.7C1792.5-254.3,1792-252.7,1791.9-250.7 M1788.5-249.6c0.1-1.8,0.5-3.4,1.2-5c0.7-1.6,1.8-2.9,3.1-3.8
					c1.4-1,2.9-1.5,4.8-1.5c1.8,0,3.3,0.5,4.7,1.4c1.4,1,2.4,2.2,3.2,3.8c0.8,1.6,1.1,3.2,1.1,4.9c0,1.1-0.6,1.7-1.9,1.7h-12.8
					c0,1.4,0.3,2.5,0.9,3.5c0.6,0.9,1.3,1.6,2.3,2.1c0.9,0.5,2,0.7,3.1,0.7c2,0,3.9-0.7,5.5-2.1c0.6-0.4,1-0.6,1.3-0.6
					c0.4,0,0.7,0.1,0.9,0.4c0.2,0.3,0.3,0.6,0.3,1c0,0.4-0.2,0.8-0.5,1.2c-0.8,0.8-1.8,1.5-3.2,2.1c-1.4,0.6-2.9,0.9-4.5,0.9
					c-1.7,0-3.1-0.3-4.4-0.9c-1.2-0.6-2.2-1.5-3-2.5c-0.8-1-1.3-2.2-1.7-3.4c-0.3-1.2-0.5-2.4-0.5-3.7
					C1788.4-249.5,1788.4-249.6,1788.5-249.6C1788.5-249.6,1788.5-249.6,1788.5-249.6"/>
			</g>
			<g id="g116_28_" transform="translate(292.5103,386.2129)">
				<path fill="#000100" d="M1797.9-238.6c-1.7,0-3.2-0.3-4.5-1c-1.3-0.6-2.3-1.5-3.1-2.6c-0.8-1.1-1.3-2.2-1.7-3.5
					c-0.4-1.2-0.5-2.5-0.6-3.7l0-0.1l0-0.1c0,0,0-0.1,0-0.1c0.1-1.8,0.5-3.5,1.2-5.1c0.7-1.6,1.8-2.9,3.2-3.9c1.4-1,3.1-1.5,4.9-1.6
					c1.8,0,3.5,0.5,4.9,1.5c1.4,1,2.5,2.3,3.3,3.9c0.8,1.6,1.2,3.3,1.2,5.1c0,0.9-0.4,1.9-2.2,1.9h-12.5c0.1,1.2,0.3,2.2,0.8,3
					c0.5,0.9,1.2,1.6,2.1,2c0.9,0.4,1.9,0.7,3,0.7c1.9,0,3.7-0.7,5.3-2.1c0.7-0.5,1.1-0.7,1.5-0.7c0.5,0,0.8,0.2,1.1,0.5
					c0.2,0.3,0.4,0.7,0.4,1.2c0,0.5-0.2,1-0.6,1.4c-0.8,0.8-1.9,1.6-3.3,2.2C1801.1-239,1799.6-238.6,1797.9-238.6z M1788.7-249.4
					c0,1.2,0.2,2.4,0.5,3.5c0.3,1.2,0.9,2.3,1.6,3.3c0.7,1,1.7,1.8,2.9,2.4c1.2,0.6,2.6,0.9,4.2,0.9c1.6,0,3-0.3,4.4-0.9
					c1.3-0.6,2.4-1.3,3.1-2c0.3-0.3,0.4-0.7,0.4-1c0-0.3-0.1-0.6-0.3-0.8c-0.2-0.2-0.4-0.3-0.7-0.3c-0.1,0-0.4,0.1-1.1,0.6
					c-1.7,1.4-3.6,2.2-5.7,2.2c-1.2,0-2.3-0.2-3.3-0.7c-1-0.5-1.8-1.2-2.4-2.2c-0.6-1-0.9-2.2-0.9-3.6l0-0.3h13.1
					c1.1,0,1.6-0.4,1.6-1.4c0-1.7-0.4-3.3-1.1-4.8c-0.7-1.5-1.8-2.8-3.1-3.7c-1.3-0.9-2.9-1.4-4.6-1.4c-1.8,0-3.3,0.5-4.6,1.5
					c-1.3,0.9-2.3,2.2-3,3.7c-0.7,1.5-1.1,3.2-1.2,4.9l0,0.1C1788.7-249.5,1788.7-249.4,1788.7-249.4z M1803.5-250.4h-11.9l0-0.3
					c0.1-2.1,0.7-3.7,1.8-4.9c1.1-1.2,2.6-1.8,4.4-1.8h0c1.8,0,3.2,0.7,4.2,1.9c1,1.2,1.5,2.8,1.6,4.7L1803.5-250.4z M1792.2-251
					h10.7c-0.1-1.7-0.6-3-1.4-4.1c-0.9-1.1-2.2-1.6-3.8-1.7c-1.6,0-2.9,0.5-3.9,1.6C1792.8-254.2,1792.3-252.8,1792.2-251z"/>
			</g>
		</g>
		<g>
			<g id="g120_28_" transform="translate(309.4863,385.2158)">
				<path id="path122_28_" fill="#000100" d="M1795.3-248.5c0,2.1,0.5,3.9,1.4,5.3c0.9,1.5,2.2,2.2,4,2.3c1.4,0,2.6-0.4,3.5-1.1
					c0.9-0.7,1.5-1.7,1.9-2.8c0.4-1.1,0.6-2.4,0.6-3.7c0-1.5-0.2-2.8-0.7-4c-0.5-1.2-1.2-2.1-2-2.7c-0.9-0.6-1.8-0.9-2.9-0.9
					c-1.3,0-2.3,0.4-3.2,1.1c-0.8,0.8-1.5,1.7-1.9,2.8C1795.6-251,1795.4-249.8,1795.3-248.5 M1806.3-256.2v-10.1
					c0-0.5,0.2-0.9,0.5-1.2c0.3-0.3,0.7-0.5,1.2-0.5c0.5,0,0.9,0.2,1.2,0.5c0.3,0.3,0.5,0.7,0.5,1.3v26.6c0,0.5-0.2,1-0.5,1.3
					c-0.3,0.3-0.7,0.5-1.2,0.5c-0.4,0-0.8-0.2-1.2-0.5c-0.3-0.3-0.5-0.7-0.5-1.2v-1.1h-0.1c-0.4,0.7-1,1.4-1.8,1.9
					c-0.8,0.5-2,0.8-3.4,0.9c-1.8,0-3.4-0.4-4.8-1.3c-1.4-0.9-2.4-2.1-3.2-3.7c-0.8-1.6-1.1-3.4-1.2-5.4c0-1.4,0.2-2.8,0.6-4.1
					c0.4-1.3,1-2.4,1.8-3.4c0.8-1,1.7-1.7,2.8-2.3c1.1-0.6,2.3-0.8,3.5-0.8C1803-259,1804.8-258.1,1806.3-256.2L1806.3-256.2z"/>
			</g>
			<g id="g124_28_" transform="translate(309.4863,385.2158)">
				<path fill="#000100" d="M1808-237.7c-0.5,0-1-0.2-1.3-0.5c-0.4-0.4-0.6-0.8-0.6-1.4v-0.2c-0.4,0.5-0.8,0.9-1.4,1.3
					c-0.9,0.6-2,0.9-3.5,0.9c-1.9,0-3.5-0.5-4.9-1.4c-1.4-0.9-2.5-2.2-3.3-3.8c-0.8-1.6-1.2-3.5-1.2-5.5c0-1.5,0.2-2.9,0.6-4.2
					c0.4-1.3,1-2.5,1.8-3.5c0.8-1,1.8-1.8,2.9-2.4c1.1-0.6,2.3-0.9,3.7-0.9c2.2,0,4,0.8,5.4,2.4v-9.4c0-0.6,0.2-1.1,0.6-1.5
					c0.4-0.4,0.8-0.5,1.4-0.5c0.6,0,1,0.2,1.4,0.5c0.4,0.4,0.6,0.9,0.6,1.5v26.6c0,0.6-0.2,1.1-0.6,1.5
					C1809-237.8,1808.5-237.7,1808-237.7z M1806.1-241h0.5v1.4c0,0.4,0.1,0.7,0.4,1c0.3,0.3,0.6,0.4,1,0.4c0.4,0,0.7-0.1,1-0.4
					c0.3-0.3,0.4-0.6,0.4-1.1v-26.6c0-0.5-0.1-0.9-0.4-1.1c-0.3-0.3-0.6-0.4-1-0.4c-0.4,0-0.7,0.1-1,0.4c-0.3,0.2-0.4,0.6-0.4,1
					v10.4h-0.5l-0.1-0.1c-1.3-1.8-3.1-2.7-5.3-2.7c-1.2,0-2.4,0.3-3.4,0.8c-1,0.5-1.9,1.3-2.7,2.2c-0.7,0.9-1.3,2.1-1.7,3.3
					c-0.4,1.3-0.6,2.6-0.6,4c0,2,0.4,3.7,1.1,5.3c0.7,1.5,1.8,2.7,3.1,3.6c1.3,0.9,2.9,1.3,4.6,1.3c1.3,0,2.4-0.3,3.2-0.8
					c0.8-0.5,1.3-1.1,1.7-1.8L1806.1-241z M1800.7-240.6c-1.9-0.1-3.3-0.9-4.3-2.4c-0.9-1.5-1.4-3.4-1.4-5.5c0-1.3,0.3-2.5,0.7-3.7
					c0.4-1.2,1.1-2.2,1.9-3c0.9-0.8,2-1.2,3.4-1.2c1.1,0,2.2,0.3,3.1,1c0.9,0.7,1.6,1.6,2.1,2.8c0.5,1.2,0.7,2.6,0.7,4.1
					c0,1.3-0.2,2.6-0.6,3.7c-0.4,1.2-1.1,2.2-2,2.9C1803.4-241,1802.2-240.6,1800.7-240.6z M1801-255.8c-1.2,0-2.2,0.4-3,1.1
					c-0.8,0.7-1.4,1.6-1.8,2.7c-0.4,1.1-0.6,2.3-0.6,3.5c0,2,0.4,3.8,1.3,5.2c0.9,1.4,2.1,2.1,3.8,2.2c1.4,0,2.4-0.3,3.3-1
					c0.8-0.7,1.4-1.6,1.8-2.7c0.4-1.1,0.6-2.3,0.6-3.6c0-1.4-0.2-2.7-0.7-3.9c-0.5-1.1-1.1-2-1.9-2.6
					C1803-255.5,1802.1-255.8,1801-255.8z"/>
			</g>
		</g>
		<g id="g144_50_" transform="translate(346.8604,398.5088)">
			<path id="path146_50_" fill="#FFFFFF" d="M1781.5-277.8c0,1.5-1.2,2.8-2.8,2.8c-1.5,0-2.8-1.2-2.8-2.8c0-1.5,1.2-2.8,2.8-2.8
				C1780.2-280.6,1781.5-279.4,1781.5-277.8"/>
		</g>
		<g id="g148_50_" transform="translate(346.8604,398.5088)">
			<path fill="#00B290" d="M1778.7-274.3c-2,0-3.5-1.6-3.5-3.6c0-2,1.6-3.6,3.5-3.6c2,0,3.6,1.6,3.6,3.6
				C1782.2-275.9,1780.6-274.3,1778.7-274.3z M1778.7-279.8c-1.1,0-2,0.9-2,2c0,1.1,0.9,2,2,2c1.1,0,2-0.9,2-2
				C1780.7-278.9,1779.8-279.8,1778.7-279.8z"/>
		</g>
		<g id="g152_50_" transform="translate(344.5557,392.5674)">
			<path fill="#000100" d="M1781-245.3c-0.9,0-1.6-0.7-1.6-1.6v-17.8c0-0.9,0.7-1.6,1.6-1.6s1.6,0.7,1.6,1.6v17.8
				C1782.6-246,1781.9-245.3,1781-245.3z"/>
		</g>
		<g>
			<g id="g128_28_" transform="translate(327.3467,385.2158)">
				<path id="path130_28_" fill="#000100" d="M1807.1-248.5c0,2.1,0.4,3.9,1.4,5.3c0.9,1.5,2.2,2.2,4,2.3c1.4,0,2.6-0.4,3.5-1.1
					c0.9-0.7,1.5-1.7,1.9-2.8c0.4-1.1,0.6-2.4,0.6-3.7c0-1.5-0.2-2.8-0.7-4c-0.5-1.2-1.2-2.1-2-2.7c-0.9-0.6-1.8-0.9-2.9-0.9
					c-1.3,0-2.3,0.4-3.2,1.1c-0.8,0.8-1.5,1.7-1.9,2.8C1807.3-251,1807.1-249.8,1807.1-248.5 M1818-256.2v-10.1
					c0-0.5,0.2-0.9,0.5-1.2c0.3-0.3,0.7-0.5,1.2-0.5c0.5,0,0.9,0.2,1.2,0.5c0.3,0.3,0.5,0.7,0.5,1.3v26.6c0,0.5-0.2,1-0.5,1.3
					c-0.3,0.3-0.8,0.5-1.2,0.5c-0.4,0-0.8-0.2-1.2-0.5c-0.3-0.3-0.5-0.7-0.5-1.2v-1.1h-0.1c-0.4,0.7-1,1.4-1.8,1.9
					c-0.8,0.5-2,0.8-3.4,0.9c-1.8,0-3.4-0.4-4.8-1.3c-1.4-0.9-2.4-2.1-3.2-3.7c-0.8-1.6-1.1-3.4-1.2-5.4c0-1.4,0.2-2.8,0.6-4.1
					c0.4-1.3,1-2.4,1.8-3.4c0.8-1,1.7-1.7,2.8-2.3c1.1-0.6,2.3-0.8,3.5-0.8C1814.7-259,1816.5-258.1,1818-256.2L1818-256.2z"/>
			</g>
			<g id="g132_28_" transform="translate(327.3467,385.2158)">
				<path fill="#000100" d="M1819.7-237.7c-0.5,0-1-0.2-1.3-0.5c-0.4-0.4-0.6-0.8-0.6-1.4v-0.2c-0.4,0.5-0.8,0.9-1.4,1.3
					c-0.9,0.6-2,0.9-3.5,0.9c-1.9,0-3.5-0.5-4.9-1.4c-1.4-0.9-2.5-2.2-3.3-3.8c-0.8-1.6-1.2-3.5-1.2-5.5c0-1.5,0.2-2.9,0.6-4.2
					c0.4-1.3,1-2.5,1.8-3.5c0.8-1,1.8-1.8,2.9-2.4c1.1-0.6,2.3-0.9,3.7-0.9c2.2,0,4,0.8,5.4,2.4v-9.4c0-0.6,0.2-1.1,0.6-1.5
					c0.4-0.4,0.8-0.5,1.4-0.5c0.6,0,1.1,0.2,1.4,0.5c0.4,0.4,0.6,0.9,0.6,1.5v26.6c0,0.6-0.2,1.1-0.6,1.5
					C1820.7-237.8,1820.2-237.7,1819.7-237.7z M1817.8-241h0.5v1.4c0,0.4,0.1,0.7,0.4,1c0.3,0.3,0.6,0.4,1,0.4c0.4,0,0.7-0.1,1-0.4
					c0.3-0.3,0.4-0.6,0.4-1.1v-26.6c0-0.5-0.1-0.9-0.4-1.1c-0.5-0.5-1.4-0.5-2,0c-0.3,0.2-0.4,0.6-0.4,1v10.4h-0.5l-0.1-0.1
					c-1.3-1.8-3.1-2.7-5.3-2.7c-1.2,0-2.4,0.3-3.4,0.8c-1,0.5-1.9,1.3-2.7,2.2c-0.7,0.9-1.3,2.1-1.7,3.3c-0.4,1.3-0.6,2.6-0.6,4
					c0,2,0.4,3.7,1.1,5.3c0.7,1.5,1.8,2.7,3.1,3.6c1.3,0.9,2.9,1.3,4.6,1.3c1.3,0,2.4-0.3,3.2-0.8c0.8-0.5,1.3-1.1,1.7-1.8
					L1817.8-241z M1812.4-240.6c-1.9-0.1-3.3-0.9-4.3-2.4c-0.9-1.5-1.4-3.4-1.4-5.5c0-1.3,0.3-2.5,0.7-3.7c0.4-1.2,1.1-2.2,1.9-3
					c0.9-0.8,2-1.2,3.4-1.2c1.1,0,2.2,0.3,3.1,1c0.9,0.7,1.6,1.6,2.1,2.8c0.5,1.2,0.7,2.6,0.7,4.1c0,1.3-0.2,2.6-0.6,3.7
					c-0.4,1.2-1.1,2.2-2,2.9C1815.2-241,1813.9-240.6,1812.4-240.6z M1812.7-255.8c-1.2,0-2.2,0.4-3,1.1c-0.8,0.7-1.4,1.6-1.8,2.7
					c-0.4,1.1-0.6,2.3-0.6,3.5c0,2,0.4,3.8,1.3,5.2c0.9,1.4,2.1,2.1,3.8,2.2c1.3,0,2.4-0.3,3.3-1c0.8-0.7,1.4-1.6,1.8-2.7
					c0.4-1.1,0.6-2.3,0.6-3.6c0-1.4-0.2-2.7-0.7-3.9c-0.5-1.1-1.1-2-1.9-2.6C1814.7-255.5,1813.8-255.8,1812.7-255.8z"/>
			</g>
		</g>
		<g>
			<g id="g136_28_" transform="translate(351.7471,391.2998)">
				<path id="path138_28_" fill="#000100" d="M1812-261.9h-1.5c-0.5,0-0.9-0.1-1.2-0.4c-0.3-0.3-0.5-0.6-0.5-1
					c0.1-1,0.7-1.5,1.7-1.5h1.5v-4.6c0-0.5,0.2-0.9,0.5-1.2c0.3-0.3,0.7-0.4,1.2-0.4c0.5,0,0.9,0.1,1.2,0.4c0.3,0.3,0.5,0.7,0.5,1.2
					v4.5h1.5c0.5,0,0.9,0.1,1.2,0.4c0.3,0.3,0.4,0.6,0.4,1.1c0,0.4-0.1,0.7-0.4,1c-0.3,0.3-0.6,0.4-1,0.4h-1.7v16.2
					c0,0.5-0.2,0.9-0.5,1.2c-0.4,0.3-0.8,0.4-1.3,0.4c-0.4,0-0.8-0.1-1.1-0.4c-0.3-0.3-0.5-0.7-0.5-1.3V-261.9z"/>
			</g>
			<g id="g140_28_" transform="translate(351.7471,391.2998)">
				<path fill="#000100" d="M1813.6-243.7c-0.5,0-1-0.2-1.3-0.5c-0.4-0.4-0.5-0.9-0.5-1.5v-15.9h-1.2c-0.6,0-1-0.2-1.4-0.5
					c-0.3-0.3-0.5-0.7-0.6-1.2c0.1-1.2,0.8-1.8,2-1.8h1.2v-4.3c0-0.6,0.2-1.1,0.6-1.4c0.4-0.3,0.8-0.5,1.4-0.5c0.6,0,1,0.2,1.4,0.5
					c0.4,0.3,0.6,0.8,0.6,1.5v4.2h1.2c0.6,0,1.1,0.2,1.4,0.5c0.3,0.3,0.5,0.8,0.5,1.3c0,0.5-0.2,0.9-0.5,1.2
					c-0.3,0.3-0.7,0.5-1.2,0.5h-1.4v16c0,0.6-0.2,1.1-0.6,1.4C1814.7-243.9,1814.2-243.7,1813.6-243.7z M1810.5-264.6
					c-0.9,0-1.3,0.4-1.4,1.3c0,0.3,0.2,0.6,0.4,0.8c0.2,0.2,0.6,0.3,1,0.3h1.8v16.5c0,0.5,0.1,0.8,0.4,1.1c0.2,0.2,0.5,0.4,0.9,0.4
					c0.4,0,0.8-0.1,1.1-0.4c0.3-0.2,0.4-0.6,0.4-1v-16.5h1.9c0.3,0,0.6-0.1,0.8-0.3c0.2-0.2,0.3-0.5,0.3-0.8c0-0.4-0.1-0.7-0.3-0.9
					c-0.2-0.2-0.5-0.3-1-0.3h-1.8v-4.8c0-0.5-0.1-0.8-0.4-1c-0.3-0.2-0.6-0.4-1.1-0.4c-0.4,0-0.7,0.1-1,0.3
					c-0.3,0.2-0.4,0.5-0.4,0.9v4.9H1810.5z"/>
			</g>
		</g>
		<g id="g144_49_" transform="translate(346.8604,398.5088)">
			<path id="path146_49_" fill="#FFFFFF" d="M1811-277.8c0,1.5-1.2,2.8-2.8,2.8s-2.8-1.2-2.8-2.8c0-1.5,1.2-2.8,2.8-2.8
				S1811-279.4,1811-277.8"/>
		</g>
		<g id="g148_49_" transform="translate(346.8604,398.5088)">
			<path fill="#00B290" d="M1808.3-274.3c-2,0-3.5-1.6-3.5-3.6c0-2,1.6-3.6,3.5-3.6c2,0,3.6,1.6,3.6,3.6
				C1811.8-275.9,1810.2-274.3,1808.3-274.3z M1808.3-279.8c-1.1,0-2,0.9-2,2c0,1.1,0.9,2,2,2c1.1,0,2-0.9,2-2
				C1810.3-278.9,1809.4-279.8,1808.3-279.8z"/>
		</g>
		<g id="g152_49_" transform="translate(344.5557,392.5674)">
			<path fill="#000100" d="M1810.6-245.3c-0.9,0-1.6-0.7-1.6-1.6v-17.8c0-0.9,0.7-1.6,1.6-1.6c0.9,0,1.6,0.7,1.6,1.6v17.8
				C1812.2-246,1811.5-245.3,1810.6-245.3z"/>
		</g>
		<g id="g24_36_" transform="translate(265.3481,392.7275)">
			<path id="path26_36_" fill="#FFFFFF" d="M1786.3-265.1c2.9,0,5.3,2.9,5.3,6.4c0,3.5-2.4,6.4-5.3,6.4s-5.3-2.9-5.3-6.4
				C1781-262.2,1783.4-265.1,1786.3-265.1"/>
		</g>
		<g id="g28_36_" transform="translate(265.3481,392.7275)">
			<path fill="#000100" d="M1786.3-251.7c-3.2,0-5.8-3.1-5.8-6.9c0-3.8,2.6-6.9,5.8-6.9c3.2,0,5.8,3.1,5.8,6.9
				C1792.2-254.8,1789.6-251.7,1786.3-251.7z M1786.3-264.6c-2.6,0-4.8,2.6-4.8,5.9c0,3.2,2.1,5.9,4.8,5.9c2.6,0,4.8-2.6,4.8-5.9
				C1791.1-261.9,1789-264.6,1786.3-264.6z"/>
		</g>
		<g id="g32_36_" transform="translate(258.4063,376.5361)">
			<path id="path34_36_" fill="#FFFFFF" d="M1784.9-229.4c0.1-0.2,0.1-0.5,0.1-0.7c0-1.6-1.6-3-3.7-3c-2,0-3.7,1.3-3.7,3
				c0,0.3,0.1,0.5,0.1,0.7H1784.9z"/>
		</g>
		<g id="g36_36_" transform="translate(258.4063,376.5361)">
			<path fill="#000100" d="M1784.9-228.9h-7.1c-0.2,0-0.4-0.1-0.5-0.4c-0.1-0.3-0.2-0.6-0.2-0.9c0-1.9,1.9-3.5,4.2-3.5
				c2.3,0,4.2,1.6,4.2,3.5c0,0.3,0,0.6-0.2,0.9C1785.4-229,1785.2-228.9,1784.9-228.9z M1778.3-229.9h6.2c0-0.1,0-0.1,0-0.2
				c0-1.3-1.4-2.4-3.1-2.4c-1.7,0-3.1,1.1-3.1,2.4C1778.3-230.1,1778.3-230,1778.3-229.9z"/>
		</g>
		<g id="g40_36_" transform="translate(269.0518,376.5361)">
			<path id="path42_36_" fill="#FFFFFF" d="M1787.1-229.4c0.1-0.2,0.1-0.5,0.1-0.7c0-1.6-1.6-3-3.7-3c-2,0-3.7,1.3-3.7,3
				c0,0.3,0.1,0.5,0.1,0.7H1787.1z"/>
		</g>
		<g id="g44_36_" transform="translate(269.0518,376.5361)">
			<path fill="#000100" d="M1787.1-228.9h-7.1c-0.2,0-0.4-0.1-0.5-0.4c-0.1-0.3-0.2-0.6-0.2-0.9c0-1.9,1.9-3.5,4.2-3.5
				c2.3,0,4.2,1.6,4.2,3.5c0,0.3-0.1,0.6-0.2,0.9C1787.5-229,1787.3-228.9,1787.1-228.9z M1780.4-229.9h6.2c0-0.1,0-0.1,0-0.2
				c0-1.3-1.4-2.4-3.1-2.4c-1.7,0-3.1,1.1-3.1,2.4C1780.4-230.1,1780.4-230,1780.4-229.9z"/>
		</g>
		<g id="g48_36_" transform="translate(252.4888,403.9858)">
			<path id="path50_36_" fill="#FFFFFF" d="M1783.7-289.9c0,1.8-1.5,3.3-3.3,3.3c-1.8,0-3.3-1.5-3.3-3.3c0-1.8,1.5-3.3,3.3-3.3
				C1782.3-293.2,1783.7-291.7,1783.7-289.9"/>
		</g>
		<g id="g52_36_" transform="translate(252.4888,403.9858)">
			<path fill="#000100" d="M1780.5-286.1c-2.1,0-3.8-1.7-3.8-3.8c0-2.1,1.7-3.8,3.8-3.8c2.1,0,3.8,1.7,3.8,3.8
				C1784.2-287.8,1782.5-286.1,1780.5-286.1z M1780.5-292.6c-1.5,0-2.7,1.2-2.7,2.7c0,1.5,1.2,2.7,2.7,2.7c1.5,0,2.7-1.2,2.7-2.7
				C1783.2-291.4,1782-292.6,1780.5-292.6z"/>
		</g>
		<g id="g56_36_" transform="translate(274.5913,403.9858)">
			<path id="path58_36_" fill="#FFFFFF" d="M1788.2-289.9c0,1.8-1.5,3.3-3.3,3.3c-1.8,0-3.3-1.5-3.3-3.3c0-1.8,1.5-3.3,3.3-3.3
				C1786.8-293.2,1788.2-291.7,1788.2-289.9"/>
		</g>
		<g id="g60_36_" transform="translate(274.5913,403.9858)">
			<path fill="#000100" d="M1785-286.1c-2.1,0-3.8-1.7-3.8-3.8c0-2.1,1.7-3.8,3.8-3.8c2.1,0,3.8,1.7,3.8,3.8
				C1788.8-287.8,1787.1-286.1,1785-286.1z M1785-292.6c-1.5,0-2.7,1.2-2.7,2.7c0,1.5,1.2,2.7,2.7,2.7c1.5,0,2.7-1.2,2.7-2.7
				C1787.7-291.4,1786.5-292.6,1785-292.6z"/>
		</g>
		<g id="g64_36_" transform="translate(268.3286,413.4697)">
			<path fill="#000100" d="M1778-304.2c-0.1,0-0.1,0-0.2,0c-0.3-0.1-0.4-0.4-0.3-0.7l2.4-7.6c0.1-0.3,0.4-0.4,0.6-0.4l6.5,1.5
				c0.3,0.1,0.5,0.4,0.4,0.6c-0.1,0.3-0.4,0.5-0.6,0.4l-6-1.4l-2.2,7.1C1778.5-304.4,1778.3-304.2,1778-304.2z"/>
		</g>
		<g id="g68_36_" transform="translate(256.2495,392.7275)">
			<path id="path70_36_" fill="#FFFFFF" d="M1784.5-265.1c2.9,0,5.3,2.9,5.3,6.4c0,3.5-2.4,6.4-5.3,6.4c-2.9,0-5.3-2.9-5.3-6.4
				C1779.2-262.2,1781.5-265.1,1784.5-265.1"/>
		</g>
		<g id="g72_36_" transform="translate(256.2495,392.7275)">
			<path fill="#000100" d="M1784.5-251.7c-3.2,0-5.8-3.1-5.8-6.9c0-3.8,2.6-6.9,5.8-6.9c3.2,0,5.8,3.1,5.8,6.9
				C1790.3-254.8,1787.7-251.7,1784.5-251.7z M1784.5-264.6c-2.6,0-4.8,2.6-4.8,5.9c0,3.2,2.1,5.9,4.8,5.9c2.6,0,4.8-2.6,4.8-5.9
				C1789.3-261.9,1787.1-264.6,1784.5-264.6z"/>
		</g>
		<g id="g76_36_" transform="translate(272.6641,413.0327)">
			<path id="path78_36_" fill="#FFFFFF" d="M1787.8-309.8c0,1.4-1.1,2.6-2.6,2.6c-1.4,0-2.6-1.1-2.6-2.6c0-1.4,1.1-2.6,2.6-2.6
				C1786.7-312.4,1787.8-311.3,1787.8-309.8"/>
		</g>
		<g id="g80_36_" transform="translate(272.6641,413.0327)">
			<path fill="#000100" d="M1785.3-306.7c-1.7,0-3.1-1.4-3.1-3.1c0-1.7,1.4-3.1,3.1-3.1c1.7,0,3.1,1.4,3.1,3.1
				C1788.4-308.1,1787-306.7,1785.3-306.7z M1785.3-311.9c-1.1,0-2,0.9-2,2c0,1.1,0.9,2,2,2c1.1,0,2-0.9,2-2
				C1787.3-311,1786.4-311.9,1785.3-311.9z"/>
		</g>
		<g id="g84_36_" transform="translate(259.2842,376.5332)">
			<path id="path86_36_" fill="#FFFFFF" d="M1785.1-229.4h3.6c3.2-1.7,5.6-7.6,5.6-14.8c0-8.4-3.3-15.2-7.4-15.2
				c-4.1,0-7.4,6.8-7.4,15.2C1779.5-237,1781.9-231.1,1785.1-229.4"/>
		</g>
		<g id="g88_36_" transform="translate(259.2842,376.5332)">
			<path fill="#000100" d="M1788.8-228.9h-3.9l-0.1-0.1c-3.4-1.8-5.9-8.1-5.9-15.2c0-8.8,3.5-15.8,7.9-15.8c4.4,0,7.9,6.9,7.9,15.8
				c0,7.2-2.4,13.4-5.9,15.2L1788.8-228.9z M1785.2-229.9h3.3c3-1.7,5.2-7.6,5.2-14.2c0-8-3.1-14.7-6.8-14.7s-6.8,6.7-6.8,14.7
				C1780.1-237.5,1782.2-231.6,1785.2-229.9z"/>
		</g>
		<g id="g92_36_" transform="translate(273.0176,400.2695)">
			<path id="path94_36_" fill="#FFFFFF" d="M1787.9-281.7c0,5.3-6.6,9.6-14.7,9.6c-8.1,0-14.7-4.3-14.7-9.6c0-5.3,6.6-9.6,14.7-9.6
				C1781.3-291.3,1787.9-287,1787.9-281.7"/>
		</g>
		<g id="g96_36_" transform="translate(273.0176,400.2695)">
			<path fill="#000100" d="M1773.2-271.6c-8.4,0-15.3-4.6-15.3-10.1c0-5.6,6.8-10.1,15.3-10.1c8.4,0,15.3,4.6,15.3,10.1
				C1788.4-276.1,1781.6-271.6,1773.2-271.6z M1773.2-290.8c-7.8,0-14.2,4.1-14.2,9.1c0,5,6.4,9.1,14.2,9.1c7.8,0,14.2-4.1,14.2-9.1
				C1787.4-286.7,1781-290.8,1773.2-290.8z"/>
		</g>
		<g id="g100_36_" transform="translate(257.5601,376.5361)">
			<path fill="#000100" d="M1792.7-228.9h-7.9c-0.3,0-0.5-0.2-0.5-0.5c0-0.3,0.2-0.5,0.5-0.5h7.9c0.3,0,0.5,0.2,0.5,0.5
				C1793.2-229.1,1793-228.9,1792.7-228.9z"/>
		</g>
		<g>
			<g id="g172_36_" transform="translate(256.6104,396.5933)">
				<path fill="#000100" d="M1789.6-271.9c-2.5,0-4.3-0.6-5.4-1.7c-0.2-0.2-0.2-0.5,0-0.7c0.2-0.2,0.5-0.2,0.7,0
					c0.9,0.9,2.5,1.4,4.7,1.4c0.3,0,0.5,0.2,0.5,0.5C1790.2-272.1,1789.9-271.9,1789.6-271.9z"/>
			</g>
			<g id="g176_36_" transform="translate(265.0654,396.5933)">
				<path fill="#000100" d="M1781.2-271.9c-0.3,0-0.5-0.2-0.5-0.5c0-0.3,0.2-0.5,0.5-0.5c2.2,0,3.8-0.5,4.7-1.4
					c0.2-0.2,0.5-0.2,0.7,0c0.2,0.2,0.2,0.5,0,0.7C1785.5-272.4,1783.7-271.9,1781.2-271.9z"/>
			</g>
		</g>
		<g>
			<g id="g160_180_" transform="translate(257.9604,401.8286)">
				<path fill="#000100" d="M1787.1-280.5c-0.4,0-0.7-0.3-0.7-0.7c0-0.4,0.3-0.7,0.7-0.7c0.4,0,0.7,0.3,0.7,0.7
					C1787.7-280.8,1787.4-280.5,1787.1-280.5z"/>
			</g>
			<g id="g160_179_" transform="translate(257.9604,401.8286)">
				<path fill="#000100" d="M1789.3-280.5c-0.4,0-0.7-0.3-0.7-0.7c0-0.4,0.3-0.7,0.7-0.7c0.4,0,0.7,0.3,0.7,0.7
					C1790-280.8,1789.7-280.5,1789.3-280.5z"/>
			</g>
		</g>
		<g id="g160_178_" transform="translate(257.9604,401.8286)">
			<path fill="#FFFFFF" stroke="#1D1D1B" stroke-width="0.9633" stroke-miterlimit="10" d="M1783.1-281.8c-1.8,0-3.3-1.5-3.3-3.3
				c0-1.8,1.5-3.3,3.3-3.3c1.8,0,3.3,1.5,3.3,3.3C1786.4-283.3,1784.9-281.8,1783.1-281.8z"/>
		</g>
		<g id="g160_177_" transform="translate(257.9604,401.8286)">
			<path fill="#FFFFFF" stroke="#1D1D1B" stroke-width="0.9633" stroke-miterlimit="10" d="M1793.5-281.8c-1.8,0-3.3-1.5-3.3-3.3
				c0-1.8,1.5-3.3,3.3-3.3c1.8,0,3.3,1.5,3.3,3.3C1796.8-283.3,1795.3-281.8,1793.5-281.8z"/>
		</g>
		<g id="g160_176_" transform="translate(257.9604,401.8286)">
			<path fill="#00B290" d="M1783.1-284c-0.6,0-1.1-0.5-1.1-1.1c0-0.6,0.5-1.1,1.1-1.1c0.6,0,1.1,0.5,1.1,1.1
				C1784.3-284.6,1783.8-284,1783.1-284z"/>
		</g>
		<g id="g160_175_" transform="translate(257.9604,401.8286)">
			<path fill="#00B290" d="M1793.5-284c-0.6,0-1.1-0.5-1.1-1.1c0-0.6,0.5-1.1,1.1-1.1c0.6,0,1.1,0.5,1.1,1.1
				C1794.6-284.6,1794.1-284,1793.5-284z"/>
		</g>
	</g>
	<g id="g24_35_" transform="translate(265.3481,392.7275)">
		<path id="path26_35_" fill="#FFFFFF" d="M1977-265.1c2.9,0,5.3,2.9,5.3,6.4c0,3.5-2.4,6.4-5.3,6.4s-5.3-2.9-5.3-6.4
			C1971.7-262.2,1974-265.1,1977-265.1"/>
	</g>
	<g id="g28_35_" transform="translate(265.3481,392.7275)">
		<path fill="#000100" d="M1977-251.7c-3.2,0-5.8-3.1-5.8-6.9c0-3.8,2.6-6.9,5.8-6.9c3.2,0,5.8,3.1,5.8,6.9
			C1982.8-254.8,1980.2-251.7,1977-251.7z M1977-264.6c-2.6,0-4.8,2.6-4.8,5.9c0,3.2,2.1,5.9,4.8,5.9c2.6,0,4.8-2.6,4.8-5.9
			C1981.8-261.9,1979.6-264.6,1977-264.6z"/>
	</g>
	<g id="g32_35_" transform="translate(258.4063,376.5361)">
		<path id="path34_35_" fill="#FFFFFF" d="M1975.6-229.4c0.1-0.2,0.1-0.5,0.1-0.7c0-1.6-1.6-3-3.7-3c-2,0-3.7,1.3-3.7,3
			c0,0.3,0.1,0.5,0.1,0.7H1975.6z"/>
	</g>
	<g id="g36_35_" transform="translate(258.4063,376.5361)">
		<path fill="#000100" d="M1975.6-228.9h-7.1c-0.2,0-0.4-0.1-0.5-0.4c-0.1-0.3-0.2-0.6-0.2-0.9c0-1.9,1.9-3.5,4.2-3.5
			c2.3,0,4.2,1.6,4.2,3.5c0,0.3,0,0.6-0.2,0.9C1976-229,1975.8-228.9,1975.6-228.9z M1968.9-229.9h6.2c0-0.1,0-0.1,0-0.2
			c0-1.3-1.4-2.4-3.1-2.4c-1.7,0-3.1,1.1-3.1,2.4C1968.9-230.1,1968.9-230,1968.9-229.9z"/>
	</g>
	<g id="g40_35_" transform="translate(269.0518,376.5361)">
		<path id="path42_35_" fill="#FFFFFF" d="M1977.7-229.4c0.1-0.2,0.1-0.5,0.1-0.7c0-1.6-1.6-3-3.7-3c-2,0-3.7,1.3-3.7,3
			c0,0.3,0.1,0.5,0.1,0.7H1977.7z"/>
	</g>
	<g id="g44_35_" transform="translate(269.0518,376.5361)">
		<path fill="#000100" d="M1977.7-228.9h-7.1c-0.2,0-0.4-0.1-0.5-0.4c-0.1-0.3-0.2-0.6-0.2-0.9c0-1.9,1.9-3.5,4.2-3.5
			c2.3,0,4.2,1.6,4.2,3.5c0,0.3-0.1,0.6-0.2,0.9C1978.2-229,1978-228.9,1977.7-228.9z M1971.1-229.9h6.2c0-0.1,0-0.1,0-0.2
			c0-1.3-1.4-2.4-3.1-2.4c-1.7,0-3.1,1.1-3.1,2.4C1971.1-230.1,1971.1-230,1971.1-229.9z"/>
	</g>
	<g id="g48_35_" transform="translate(252.4888,403.9858)">
		<path id="path50_35_" fill="#FFFFFF" d="M1974.3-289.9c0,1.8-1.5,3.3-3.3,3.3c-1.8,0-3.3-1.5-3.3-3.3c0-1.8,1.5-3.3,3.3-3.3
			C1972.9-293.2,1974.3-291.7,1974.3-289.9"/>
	</g>
	<g id="g52_35_" transform="translate(252.4888,403.9858)">
		<path fill="#000100" d="M1971.1-286.1c-2.1,0-3.8-1.7-3.8-3.8c0-2.1,1.7-3.8,3.8-3.8c2.1,0,3.8,1.7,3.8,3.8
			C1974.9-287.8,1973.2-286.1,1971.1-286.1z M1971.1-292.6c-1.5,0-2.7,1.2-2.7,2.7c0,1.5,1.2,2.7,2.7,2.7c1.5,0,2.7-1.2,2.7-2.7
			C1973.8-291.4,1972.6-292.6,1971.1-292.6z"/>
	</g>
	<g id="g56_35_" transform="translate(274.5913,403.9858)">
		<path id="path58_35_" fill="#FFFFFF" d="M1978.9-289.9c0,1.8-1.5,3.3-3.3,3.3c-1.8,0-3.3-1.5-3.3-3.3c0-1.8,1.5-3.3,3.3-3.3
			C1977.4-293.2,1978.9-291.7,1978.9-289.9"/>
	</g>
	<g id="g60_35_" transform="translate(274.5913,403.9858)">
		<path fill="#000100" d="M1975.6-286.1c-2.1,0-3.8-1.7-3.8-3.8c0-2.1,1.7-3.8,3.8-3.8c2.1,0,3.8,1.7,3.8,3.8
			C1979.4-287.8,1977.7-286.1,1975.6-286.1z M1975.6-292.6c-1.5,0-2.7,1.2-2.7,2.7c0,1.5,1.2,2.7,2.7,2.7c1.5,0,2.7-1.2,2.7-2.7
			C1978.3-291.4,1977.1-292.6,1975.6-292.6z"/>
	</g>
	<g id="g64_35_" transform="translate(268.3286,413.4697)">
		<path fill="#000100" d="M1968.7-304.2c-0.1,0-0.1,0-0.2,0c-0.3-0.1-0.4-0.4-0.3-0.7l2.4-7.6c0.1-0.3,0.4-0.4,0.6-0.4l6.5,1.5
			c0.3,0.1,0.5,0.4,0.4,0.6c-0.1,0.3-0.4,0.5-0.6,0.4l-6-1.4l-2.2,7.1C1969.1-304.4,1968.9-304.2,1968.7-304.2z"/>
	</g>
	<g id="g68_35_" transform="translate(256.2495,392.7275)">
		<path id="path70_35_" fill="#FFFFFF" d="M1975.1-265.1c2.9,0,5.3,2.9,5.3,6.4c0,3.5-2.4,6.4-5.3,6.4c-2.9,0-5.3-2.9-5.3-6.4
			C1969.8-262.2,1972.2-265.1,1975.1-265.1"/>
	</g>
	<g id="g72_35_" transform="translate(256.2495,392.7275)">
		<path fill="#000100" d="M1975.1-251.7c-3.2,0-5.8-3.1-5.8-6.9c0-3.8,2.6-6.9,5.8-6.9c3.2,0,5.8,3.1,5.8,6.9
			C1981-254.8,1978.3-251.7,1975.1-251.7z M1975.1-264.6c-2.6,0-4.8,2.6-4.8,5.9c0,3.2,2.1,5.9,4.8,5.9c2.6,0,4.8-2.6,4.8-5.9
			C1979.9-261.9,1977.7-264.6,1975.1-264.6z"/>
	</g>
	<g id="g76_35_" transform="translate(272.6641,413.0327)">
		<path id="path78_35_" fill="#FFFFFF" d="M1978.5-309.8c0,1.4-1.1,2.6-2.6,2.6c-1.4,0-2.6-1.1-2.6-2.6c0-1.4,1.1-2.6,2.6-2.6
			C1977.3-312.4,1978.5-311.3,1978.5-309.8"/>
	</g>
	<g id="g80_35_" transform="translate(272.6641,413.0327)">
		<path fill="#000100" d="M1975.9-306.7c-1.7,0-3.1-1.4-3.1-3.1c0-1.7,1.4-3.1,3.1-3.1c1.7,0,3.1,1.4,3.1,3.1
			C1979-308.1,1977.6-306.7,1975.9-306.7z M1975.9-311.9c-1.1,0-2,0.9-2,2c0,1.1,0.9,2,2,2c1.1,0,2-0.9,2-2
			C1977.9-311,1977-311.9,1975.9-311.9z"/>
	</g>
	<g id="g84_35_" transform="translate(259.2842,376.5332)">
		<path id="path86_35_" fill="#FFFFFF" d="M1975.7-229.4h3.6c3.2-1.7,5.6-7.6,5.6-14.8c0-8.4-3.3-15.2-7.4-15.2
			c-4.1,0-7.4,6.8-7.4,15.2C1970.2-237,1972.5-231.1,1975.7-229.4"/>
	</g>
	<g id="g88_35_" transform="translate(259.2842,376.5332)">
		<path fill="#000100" d="M1979.5-228.9h-3.9l-0.1-0.1c-3.4-1.8-5.9-8.1-5.9-15.2c0-8.8,3.5-15.8,7.9-15.8c4.4,0,7.9,6.9,7.9,15.8
			c0,7.2-2.4,13.4-5.9,15.2L1979.5-228.9z M1975.9-229.9h3.3c3-1.7,5.2-7.6,5.2-14.2c0-8-3.1-14.7-6.8-14.7s-6.8,6.7-6.8,14.7
			C1970.7-237.5,1972.9-231.6,1975.9-229.9z"/>
	</g>
	<g id="g92_35_" transform="translate(273.0176,400.2695)">
		<path id="path94_35_" fill="#FFFFFF" d="M1978.5-281.7c0,5.3-6.6,9.6-14.7,9.6c-8.1,0-14.7-4.3-14.7-9.6c0-5.3,6.6-9.6,14.7-9.6
			C1971.9-291.3,1978.5-287,1978.5-281.7"/>
	</g>
	<g id="g96_35_" transform="translate(273.0176,400.2695)">
		<path fill="#000100" d="M1963.8-271.6c-8.4,0-15.3-4.6-15.3-10.1c0-5.6,6.8-10.1,15.3-10.1c8.4,0,15.3,4.6,15.3,10.1
			C1979.1-276.1,1972.2-271.6,1963.8-271.6z M1963.8-290.8c-7.8,0-14.2,4.1-14.2,9.1c0,5,6.4,9.1,14.2,9.1c7.8,0,14.2-4.1,14.2-9.1
			C1978-286.7,1971.6-290.8,1963.8-290.8z"/>
	</g>
	<g id="g100_35_" transform="translate(257.5601,376.5361)">
		<path fill="#000100" d="M1983.3-228.9h-7.9c-0.3,0-0.5-0.2-0.5-0.5c0-0.3,0.2-0.5,0.5-0.5h7.9c0.3,0,0.5,0.2,0.5,0.5
			C1983.9-229.1,1983.6-228.9,1983.3-228.9z"/>
	</g>
	<g>
		<g id="g172_35_" transform="translate(256.6104,396.5933)">
			<path fill="#000100" d="M1980.3-271.9c-2.5,0-4.3-0.6-5.4-1.7c-0.2-0.2-0.2-0.5,0-0.7c0.2-0.2,0.5-0.2,0.7,0
				c0.9,0.9,2.5,1.4,4.7,1.4c0.3,0,0.5,0.2,0.5,0.5C1980.8-272.1,1980.5-271.9,1980.3-271.9z"/>
		</g>
		<g id="g176_35_" transform="translate(265.0654,396.5933)">
			<path fill="#000100" d="M1971.8-271.9c-0.3,0-0.5-0.2-0.5-0.5c0-0.3,0.2-0.5,0.5-0.5c2.2,0,3.8-0.5,4.7-1.4
				c0.2-0.2,0.5-0.2,0.7,0c0.2,0.2,0.2,0.5,0,0.7C1976.2-272.4,1974.4-271.9,1971.8-271.9z"/>
		</g>
	</g>
	<g>
		<g id="g160_174_" transform="translate(257.9604,401.8286)">
			<path fill="#000100" d="M1977.7-280.5c-0.4,0-0.7-0.3-0.7-0.7c0-0.4,0.3-0.7,0.7-0.7c0.4,0,0.7,0.3,0.7,0.7
				C1978.4-280.8,1978.1-280.5,1977.7-280.5z"/>
		</g>
		<g id="g160_173_" transform="translate(257.9604,401.8286)">
			<path fill="#000100" d="M1980-280.5c-0.4,0-0.7-0.3-0.7-0.7c0-0.4,0.3-0.7,0.7-0.7c0.4,0,0.7,0.3,0.7,0.7
				C1980.6-280.8,1980.3-280.5,1980-280.5z"/>
		</g>
	</g>
	<g id="g160_172_" transform="translate(257.9604,401.8286)">
		<path fill="#FFFFFF" stroke="#1D1D1B" stroke-width="0.9633" stroke-miterlimit="10" d="M1973.7-281.8c-1.8,0-3.3-1.5-3.3-3.3
			c0-1.8,1.5-3.3,3.3-3.3c1.8,0,3.3,1.5,3.3,3.3C1977.1-283.3,1975.6-281.8,1973.7-281.8z"/>
	</g>
	<g id="g160_171_" transform="translate(257.9604,401.8286)">
		<path fill="#FFFFFF" stroke="#1D1D1B" stroke-width="0.9633" stroke-miterlimit="10" d="M1984.1-281.8c-1.8,0-3.3-1.5-3.3-3.3
			c0-1.8,1.5-3.3,3.3-3.3c1.8,0,3.3,1.5,3.3,3.3C1987.5-283.3,1986-281.8,1984.1-281.8z"/>
	</g>
	<g id="g160_170_" transform="translate(257.9604,401.8286)">
		<path fill="#00B290" d="M1973.8-284c-0.6,0-1.1-0.5-1.1-1.1c0-0.6,0.5-1.1,1.1-1.1c0.6,0,1.1,0.5,1.1,1.1
			C1974.9-284.5,1974.4-284,1973.8-284z"/>
	</g>
	<g id="g160_169_" transform="translate(257.9604,401.8286)">
		<path fill="#00B290" d="M1984.2-284c-0.6,0-1.1-0.5-1.1-1.1c0-0.6,0.5-1.1,1.1-1.1c0.6,0,1.1,0.5,1.1,1.1
			C1985.3-284.5,1984.8-284,1984.2-284z"/>
	</g>
</g>
<g>
	<g>
		<path fill="#00B290" d="M403.1,139.4h-3.4v-2.5c2.3-0.2,4.4-1.3,5.9-3c1.6-1.7,2.4-3.9,2.4-6.2V123c0-0.5-0.4-0.9-0.9-0.9h-0.9
			c-0.5,0-0.9,0.4-0.9,0.9c0,0.5,0.4,0.9,0.9,0.9l0,3.7c0,4.1-3.3,7.4-7.4,7.4c-4.1,0-7.4-3.3-7.4-7.4v-3.7c0.5,0,0.9-0.4,0.9-0.9
			c0-0.5-0.4-0.9-0.9-0.9h-0.9c-0.5,0-0.9,0.4-0.9,0.9v4.6c0,2.3,0.9,4.5,2.4,6.2c1.5,1.7,3.6,2.7,5.9,3v2.5h-3.4
			c-2.9,0-5.2,2.3-5.2,5.2c0,0.5,0.4,0.9,0.9,0.9h17.3c0.5,0,0.9-0.4,0.9-0.9C408.3,141.7,405.9,139.4,403.1,139.4z M406.3,143.7
			h-15.2c0.4-1.5,1.8-2.5,3.3-2.5h8.6C404.6,141.2,405.9,142.2,406.3,143.7z"/>
		<path fill="#00B290" d="M398.7,132.5c2.9,0,5.2-2.3,5.2-5.2v-10.8c0-2.9-2.3-5.2-5.2-5.2s-5.2,2.3-5.2,5.2v10.8
			C393.5,130.2,395.8,132.5,398.7,132.5z M395.3,116.5c0-1.9,1.5-3.4,3.4-3.4s3.4,1.5,3.4,3.4v10.8c0,1.9-1.5,3.4-3.4,3.4
			s-3.4-1.5-3.4-3.4V116.5z"/>
	</g>
	<g>
		<path fill="#00B290" d="M55.6,115.6H29.8c-1.5,0-2.7,1.2-2.7,2.7v20.1c0,1.5,1.2,2.7,2.7,2.7h25.8c1.5,0,2.7-1.2,2.7-2.7v-20.1
			C58.3,116.8,57.1,115.6,55.6,115.6z M56.1,139H38.6l9.1-10.4l8.4,4.9V139z M56.1,131l-8-4.7c-0.4-0.2-1-0.1-1.4,0.2l-11,12.5h-6.5
			v-21.2h26.8V131z"/>
		<path fill="#00B290" d="M36.6,129.9c2.6,0,4.7-2.1,4.7-4.7s-2.1-4.7-4.7-4.7c-2.6,0-4.7,2.1-4.7,4.7S34,129.9,36.6,129.9z
			 M36.6,122.6c1.4,0,2.5,1.1,2.5,2.6c0,1.4-1.1,2.5-2.5,2.5s-2.5-1.1-2.5-2.5C34.1,123.8,35.2,122.6,36.6,122.6z"/>
	</g>
	<path fill="#00B290" d="M179.4,120.5l-6.1-5.9c-0.6-0.6-1.4-0.9-2.3-0.9c-0.9,0-1.8,0.4-2.4,1l-4,4.1l1.6,1.5l4-4.1
		c0.2-0.2,0.5-0.3,0.8-0.3c0.3,0,0.6,0.1,0.8,0.3l6.1,5.9c0.2,0.2,0.3,0.5,0.4,0.8c0,0.3-0.1,0.6-0.3,0.8l-11.7,12
		c-0.1,0.1-0.2,0.2-0.3,0.2l-0.6,0.6l-2.9-2.8l3.4-3.4c0.6-0.6,1-1.5,1-2.4c0-0.9-0.4-1.7-1-2.4l-6.1-5.9c-0.6-0.6-1.5-1-2.3-1
		c-0.9,0-1.8,0.4-2.4,1l-11.7,12c-0.6,0.6-1,1.5-0.9,2.4c0,0.9,0.4,1.7,1,2.4l6.1,5.9c0.6,0.6,1.4,0.9,2.3,0.9c0.9,0,1.8-0.4,2.4-1
		l6.8-7l2.4,2.3c0.6,0.4,1.3,0.7,2.1,0.7c0.9,0,1.8-0.4,2.4-1l11.7-12c0.6-0.6,1-1.5,1-2.4C180.4,121.9,180.1,121.1,179.4,120.5z
		 M160.9,132.1l-2.9-2.8l0.1-0.1c0-0.1,0-0.2,0-0.3c0-0.3,0.1-0.6,0.3-0.8l0.5-0.6l-1.6-1.5l-0.5,0.6c-0.6,0.6-1,1.5-1,2.4
		c0,0.9,0.4,1.7,1,2.4l0.6,0.6l0,0l1.9,1.8l-6.8,7c-0.2,0.2-0.5,0.3-0.8,0.3c-0.3,0-0.6-0.1-0.8-0.3l-6.1-5.9
		c-0.2-0.2-0.3-0.5-0.3-0.8c0-0.3,0.1-0.6,0.3-0.8l11.7-12c0.4-0.4,1.2-0.4,1.6,0l6.1,5.9c0.2,0.2,0.3,0.5,0.3,0.8
		c0,0.3-0.1,0.6-0.3,0.8L160.9,132.1z"/>
	<path fill="#00B290" d="M296.6,119.7c-0.4-0.2-0.8-0.1-1.1,0.2l-7.7,6.8V121c0-1.6-1.3-2.8-2.8-2.8h-19.2c-1.6,0-2.8,1.3-2.8,2.8
		v14.8c0,1.6,1.3,2.8,2.8,2.8h19.2c1.6,0,2.8-1.3,2.8-2.8v-5.8l7.7,7.1c0.3,0.3,0.8,0.4,1.1,0.2c0.4-0.2,0.6-0.5,0.6-1v-15.6
		C297.2,120.2,297,119.9,296.6,119.7z M285.7,136.5H265v-16.2h20.7V136.5z M295.1,133.9l-6-5.6l6-5.3V133.9z"/>
	<g>
		<path fill="#00B290" d="M508,137.6c1,1,2.5,1,3.5,0c1-1,1-2.5,0-3.5c-1-1-2.5-1-3.5,0C507.1,135.1,507.1,136.6,508,137.6z
			 M509,135.1c0.4-0.4,1.1-0.4,1.5,0c0.4,0.4,0.4,1.1,0,1.5c-0.4,0.4-1.1,0.4-1.5,0C508.6,136.2,508.6,135.5,509,135.1z"/>
		<path fill="#00B290" d="M530.2,124.3c2.3-2.5,2.3-6.4,0-8.7c-2.3-2.3-6.1-2.3-8.7,0l-0.4-0.4c-0.3-0.3-0.9-0.3-1.2,0
			c-0.3,0.3-0.3,0.9,0,1.2l0.4,0.4l-1.4,1.4l-0.4-0.4c-0.3-0.3-0.9-0.3-1.2,0c-0.3,0.3-0.3,0.9,0,1.2l0.4,0.4l-11,11l0,0
			c0,0,0,0,0,0c-0.9,0.9-1.4,1.9-1.7,3l0,0l0,0.1c0,0,0,0,0,0l-1.9,9.1l9.3-2l0,0c1.1-0.2,2.2-0.8,3-1.7c0,0,0,0,0,0l0,0l11-11
			l0.4,0.4c0.3,0.3,0.9,0.3,1.2,0c0.3-0.3,0.3-0.9,0-1.2l-0.4-0.4l1.4-1.4l0.4,0.4c0.3,0.3,0.9,0.3,1.2,0c0.3-0.3,0.3-0.9,0-1.2
			L530.2,124.3z M514,138.1C514,138.1,514,138.1,514,138.1c-0.6,0.5-1.2,0.9-1.9,1.1l0,0l0,0c-0.1,0-0.3,0.1-0.4,0.1l-0.2,0v0
			l-6.3,1.3l0.5-2.4l0.9-4.1c0,0,0-0.1,0-0.1l0-0.2l0,0c0.2-0.7,0.6-1.4,1.1-1.9h0l1.4-1.4l6.2,6.2L514,138.1z M516.6,135.4
			l-6.2-6.2l8.4-8.4l6.2,6.2L516.6,135.4z M526.3,125.7l-6.2-6.2l1.4-1.4l6.2,6.2L526.3,125.7z M529,123l-6.2-6.2
			c1.9-1.6,4.6-1.6,6.2,0C530.6,118.5,530.6,121.2,529,123z"/>
	</g>
	<g>
		<path fill="#00B290" d="M1122.2,129.9c0.4-0.1,0.8-0.3,1.2-0.5c1.5-0.7,1.6-1.7,1.5-2.3c0-0.4-0.3-1.7-0.3-1.7
			c-0.1-0.3-0.4-1.4-1.9-1.7c-0.3-0.1-0.6-0.1-1.1-0.1c-0.2,0-0.4,0-0.6,0c-0.1,0-0.2,0-0.3,0c-0.2-0.4-0.4-0.8-0.7-1.1
			c0.1-0.1,0.1-0.2,0.1-0.2c0.2-0.4,0.5-0.8,0.6-1.1c0.2-0.5,0.7-1.8-0.3-2.8c-0.3-0.3-1.2-1-1.3-1.1c-0.4-0.3-0.8-0.4-1.3-0.4
			c-1,0-1.7,0.6-2.6,1.4c-0.1,0.1-0.1,0.1-0.2,0.2c-0.4-0.2-0.8-0.3-1.2-0.4c0-0.1,0-0.2,0-0.3c-0.1-0.4-0.1-0.9-0.2-1.3
			c-0.4-1.7-1.6-1.9-2.1-1.9c-0.2,0-0.6,0-0.9,0c-0.2,0-0.6,0-0.9,0c-0.5,0-1.6,0.3-2.1,1.9c-0.1,0.4-0.2,0.8-0.2,1.3
			c0,0.1,0,0.2,0,0.3c-0.4,0.1-0.8,0.3-1.2,0.4c-0.1-0.1-0.1-0.1-0.2-0.2c-0.8-0.7-1.6-1.4-2.6-1.4c-0.5,0-0.9,0.2-1.3,0.4
			c-0.1,0.1-1,0.8-1.3,1.1c-0.3,0.3-1,1.3-0.3,2.8c0.2,0.4,0.4,0.8,0.6,1.1c0,0.1,0.1,0.2,0.1,0.2c-0.2,0.3-0.5,0.7-0.7,1.1
			c-0.1,0-0.2,0-0.3,0c-0.2,0-0.4,0-0.6,0c-0.4,0-0.8,0-1.1,0.1c-1.5,0.3-1.8,1.4-1.9,1.7c0,0-0.3,1.3-0.3,1.7
			c0,0.6,0.1,1.6,1.5,2.3c0.4,0.2,0.8,0.3,1.2,0.5c0.1,0,0.2,0.1,0.3,0.1c0.1,0.4,0.1,0.9,0.2,1.3c-0.1,0.1-0.1,0.1-0.2,0.2
			c-0.3,0.3-0.7,0.6-1,0.8c-1.2,1.2-0.8,2.4-0.6,2.8c0,0,0.6,1.1,0.9,1.5c0.4,0.6,1.1,0.9,1.8,0.9c0.7,0,1.4-0.3,2.1-0.6
			c0.1,0,0.2-0.1,0.3-0.1c0.3,0.3,0.7,0.6,1,0.8c0,0.1,0,0.2-0.1,0.3c-0.1,0.4-0.2,0.9-0.2,1.3c-0.1,1.7,0.9,2.3,1.3,2.5
			c0.2,0.1,1.3,0.5,1.6,0.6c0.2,0.1,0.4,0.1,0.6,0.1c1.4,0,2.1-1.2,2.7-2.3c0-0.1,0.1-0.2,0.1-0.2c0.2,0,0.4,0,0.6,0s0.4,0,0.6,0
			c0,0.1,0.1,0.2,0.1,0.2c0.6,1.1,1.3,2.3,2.7,2.3c0.2,0,0.4,0,0.6-0.1c0.3-0.1,1.4-0.5,1.6-0.6c0.4-0.2,1.5-0.8,1.3-2.5
			c0-0.4-0.1-0.9-0.2-1.3c0-0.1,0-0.2-0.1-0.3c0.3-0.3,0.7-0.6,1-0.8c0.1,0,0.2,0.1,0.3,0.1c0.7,0.3,1.4,0.6,2.1,0.6
			c0.7,0,1.4-0.3,1.8-0.9c0.3-0.4,0.9-1.5,0.9-1.5c0.2-0.4,0.6-1.6-0.6-2.8c-0.3-0.3-0.6-0.6-1-0.8c-0.1,0-0.1-0.1-0.2-0.2
			c0.1-0.4,0.2-0.9,0.2-1.3C1122,129.9,1122.1,129.9,1122.2,129.9z M1121.8,134.1c-0.1,0.2-0.6,1.1-0.7,1.3c0,0.1-0.1,0.1-0.2,0.1
			c-0.6,0-2.2-0.8-2.8-0.8c-0.1,0-0.2,0-0.2,0.1c-0.3,0.4-1.8,1.7-2.3,1.9c-0.5,0.3,0.6,3.1,0.1,3.3c-0.2,0.1-1.2,0.4-1.4,0.5
			c0,0,0,0,0,0c-0.5,0-1.4-2.6-1.9-2.6c0,0,0,0,0,0c-0.2,0-0.9,0.1-1.5,0.1s-1.2,0-1.5-0.1c0,0,0,0,0,0c-0.5,0-1.4,2.6-2,2.6
			c0,0,0,0,0,0c-0.2-0.1-1.2-0.4-1.4-0.5c-0.5-0.2,0.6-3,0.1-3.3c-0.4-0.2-1.9-1.5-2.3-1.9c0,0-0.1-0.1-0.2-0.1
			c-0.6,0-2.2,0.8-2.8,0.8c-0.1,0-0.2,0-0.2-0.1c-0.1-0.2-0.6-1.1-0.7-1.3c-0.3-0.5,2.4-1.9,2.2-2.4c-0.2-0.5-0.5-2.4-0.5-2.9
			c0-0.5-2.9-1-2.9-1.5c0-0.2,0.2-1.2,0.3-1.5c0-0.2,0.5-0.2,1-0.2c0.4,0,0.8,0,1.2,0c0.5,0,1,0,1-0.2c0.2-0.5,1.2-2.2,1.5-2.6
			c0.3-0.4-1.6-2.7-1.2-3c0.2-0.2,0.9-0.8,1.1-1c0,0,0.1,0,0.1,0c0.5,0,2,1.8,2.6,1.8c0,0,0.1,0,0.1,0c0.4-0.3,2.3-0.9,2.8-1
			c0.5-0.1,0.5-3.1,1-3.1c0.1,0,0.4,0,0.7,0c0.3,0,0.6,0,0.7,0c0.5,0,0.5,3,1,3.1c0.5,0.1,2.4,0.8,2.8,1c0,0,0.1,0,0.1,0
			c0.5,0,2-1.8,2.6-1.8c0,0,0.1,0,0.1,0c0.2,0.2,1,0.8,1.1,1c0.4,0.4-1.6,2.6-1.2,3c0.3,0.4,1.3,2.1,1.5,2.6c0.1,0.2,0.5,0.2,1,0.2
			c0.4,0,0.8,0,1.2,0c0.5,0,1,0,1,0.2c0.1,0.2,0.2,1.2,0.3,1.5c0,0.5-2.9,1-2.9,1.5c0,0.5-0.3,2.5-0.5,2.9
			C1119.4,132.2,1122.1,133.7,1121.8,134.1z"/>
		<path fill="#00B290" d="M1110.8,122.3c-3.4,0-6.1,2.7-6.1,6.1c0,3.4,2.7,6.1,6.1,6.1s6.1-2.7,6.1-6.1
			C1116.9,125,1114.2,122.3,1110.8,122.3z M1110.8,132.6c-2.3,0-4.2-1.9-4.2-4.2c0-2.3,1.9-4.2,4.2-4.2c2.3,0,4.2,1.9,4.2,4.2
			C1115,130.7,1113.1,132.6,1110.8,132.6z"/>
	</g>
	<g>
		<path fill="#00B290" d="M1354.5,120.9c-0.5-0.4-1.3-0.3-1.6,0.2c-0.4,0.5-0.3,1.3,0.2,1.6c2.1,1.6,3.4,4.1,3.4,6.7
			c0,4.6-3.7,8.3-8.3,8.3c-4.6,0-8.3-3.7-8.3-8.3c0-2.6,1.2-5,3.3-6.6c0.5-0.4,0.6-1.1,0.2-1.7c-0.4-0.5-1.1-0.6-1.7-0.2
			c-2.7,2-4.2,5.1-4.2,8.5c0,5.9,4.8,10.7,10.7,10.7c5.9,0,10.7-4.8,10.7-10.7C1358.8,126.1,1357.2,122.9,1354.5,120.9z"/>
		<path fill="#00B290" d="M1348.2,129.7c0.7,0,1.2-0.5,1.2-1.2v-10.7c0-0.7-0.5-1.2-1.2-1.2s-1.2,0.5-1.2,1.2v10.7
			C1347,129.1,1347.5,129.7,1348.2,129.7z"/>
	</g>
	<g>
		<path fill="#00B290" d="M1471.2,134c-1.6,1.7-3.8,2.7-6.1,2.7c-4.6,0-8.3-3.7-8.3-8.3c0-4.6,3.7-8.3,8.3-8.3c2.3,0,4.4,0.9,6,2.6
			c0.5,0.5,1.2,0.5,1.7,0c0.5-0.5,0.5-1.2,0-1.7c-2-2.1-4.8-3.3-7.7-3.3c-5.9,0-10.7,4.8-10.7,10.7c0,5.9,4.8,10.7,10.7,10.7
			c3,0,5.8-1.2,7.8-3.4c0.4-0.5,0.4-1.2-0.1-1.7S1471.6,133.6,1471.2,134z"/>
		<path fill="#00B290" d="M1475.7,124.3c-0.5-0.5-1.2-0.5-1.7,0c-0.5,0.5-0.5,1.2,0,1.7l1.2,1.2h-9.2c-0.7,0-1.2,0.5-1.2,1.2
			c0,0.7,0.5,1.2,1.2,1.2h9.2l-1.2,1.2c-0.5,0.5-0.5,1.2,0,1.7c0.2,0.2,0.5,0.3,0.8,0.3c0.3,0,0.6-0.1,0.8-0.3l4.1-4.1L1475.7,124.3
			z"/>
	</g>
	<path fill="#00B290" d="M1000.7,127.2h-7.4v-7.4c0-0.7-0.5-1.2-1.2-1.2c-0.7,0-1.2,0.5-1.2,1.2v7.4h-7.4c-0.7,0-1.2,0.5-1.2,1.2
		c0,0.7,0.5,1.2,1.2,1.2h7.4v7.4c0,0.7,0.5,1.2,1.2,1.2c0.7,0,1.2-0.5,1.2-1.2v-7.4h7.4c0.7,0,1.2-0.5,1.2-1.2
		C1001.9,127.7,1001.4,127.2,1000.7,127.2z"/>
	<path fill="#00B290" d="M880.4,133.6l-5.2-5.2l5.2-5.2c0.5-0.5,0.5-1.2,0-1.7s-1.2-0.5-1.7,0l-5.2,5.2l-5.2-5.2
		c-0.5-0.5-1.2-0.5-1.7,0s-0.5,1.2,0,1.7l5.2,5.2l-5.2,5.2c-0.5,0.5-0.5,1.2,0,1.7c0.2,0.2,0.5,0.3,0.8,0.3s0.6-0.1,0.8-0.3l5.2-5.2
		l5.2,5.2c0.2,0.2,0.5,0.3,0.8,0.3s0.6-0.1,0.8-0.3C880.8,134.8,880.8,134.1,880.4,133.6z"/>
	<path fill="#00B290" d="M646.1,130.8c0-1-0.5-1.9-1.3-2.3c0.1-0.3,0.2-0.6,0.2-1c0-1.4-0.9-2.4-2-2.4h-2.7c1.5-1.9,2.2-3.5,2.1-4.8
		c-0.3-2.4-2.2-3.1-3.2-3.2c-0.2,0-0.5,0.1-0.6,0.3c-0.2,0.2-0.2,0.4-0.2,0.7c0,0.1,0.1,1.2-1,2.5c-0.2,0.2-0.4,0.4-0.8,0.6
		c-0.6,0.3-1.3,0.8-2.3,1.7c-1.2,1.1-3,2.5-3.8,3.1h-3.7c-0.2,0-0.4,0.1-0.6,0.2c-0.2,0.2-0.2,0.4-0.2,0.6l0,8.4
		c0,0.5,0.4,0.8,0.8,0.8h3.3c1.4,2.1,3.4,3.3,5.4,3.3h3.2c0.1,0,0.1,0,0.2,0c0.1,0,0.2,0,0.3,0h2.6c1.1,0,2-1.1,2-2.4
		c0-0.3,0-0.6-0.1-0.9c0.8-0.3,1.3-1.2,1.3-2.3c0-0.3,0-0.6-0.1-0.9C645.6,132.7,646.1,131.8,646.1,130.8z M643,126.5
		c0.3,0,0.6,0.4,0.6,1c0,0.6-0.3,1-0.6,1h-4.5c-0.3,0-0.6-0.4-0.6-1c0-0.6,0.3-1,0.6-1H643z M637.8,138.2h-2.2c-1.9,0-3.5-1.5-4.5-3
		c-0.1-0.2-0.3-0.4-0.5-0.4h-3.2l0-7.4h3.4c0.1,0,0.2,0,0.3-0.1c0.6-0.5,2.8-2.1,4.1-3.3c0.9-0.8,1.5-1.2,2.1-1.5
		c0.4-0.3,0.8-0.5,1.1-0.8c1-1.1,1.3-2.2,1.4-2.9c0.5,0.2,1.2,0.6,1.3,1.8c0.1,1.1-0.9,2.8-2.7,4.8c-0.7,0.1-1.2,0.6-1.5,1.3
		c-0.1,0.1-0.2,0.3-0.1,0.4c0,0.2-0.1,0.4-0.1,0.6c0,0.2,0,0.4,0.1,0.6c-0.1,1.3-0.7,3.2-3.1,3.5c-0.3,0-0.5,0.3-0.4,0.6
		c0,0.3,0.3,0.5,0.5,0.5c0,0,0.1,0,0.1,0c1.1-0.2,1.9-0.6,2.5-1.1c0.2,0.4,0.4,0.8,0.8,1.1c-0.3,0.4-0.4,0.8-0.4,1.3
		c0,0.9,0.5,1.7,1.2,2c0,0.1-0.1,0.2-0.1,0.3c-0.1,0.3-0.2,0.6-0.2,0.9C637.6,137.6,637.6,137.9,637.8,138.2z M641.9,138.2h-2.6
		c-0.3,0-0.6-0.4-0.6-1c0-0.1,0-0.3,0.1-0.4c0.1-0.2,0.2-0.4,0.4-0.5c0,0,0.1-0.1,0.1-0.1c0,0,0,0,0.1,0h2.6c0.3,0,0.6,0.4,0.6,1
		C642.5,137.7,642.1,138.2,641.9,138.2z M643,135h-4.5c-0.3,0-0.6-0.4-0.6-1c0-0.6,0.3-1,0.6-1h4.5c0.3,0,0.6,0.5,0.6,1
		C643.6,134.6,643.3,135,643,135z M644.2,131.8h-1.1c0,0,0,0,0,0h-4.5c0,0,0,0,0,0h-0.5c-0.3,0-0.6-0.4-0.6-1c0-0.6,0.3-1,0.6-1h6.1
		c0.3,0,0.6,0.4,0.6,1C644.8,131.4,644.5,131.8,644.2,131.8z"/>
	<path fill="#00B290" d="M764.8,121.4c0-0.5-0.4-0.8-0.8-0.8h-3.3c-1.4-2.1-3.4-3.3-5.4-3.3h-3.2c-0.1,0-0.1,0-0.2,0
		c-0.1,0-0.2,0-0.3,0H749c-1.1,0-2,1.1-2,2.4c0,0.3,0,0.6,0.1,0.9c-0.8,0.3-1.3,1.2-1.3,2.3c0,0.3,0,0.6,0.1,0.9
		c-0.8,0.3-1.3,1.2-1.3,2.3c0,1,0.5,1.9,1.3,2.3c-0.1,0.3-0.2,0.6-0.2,1c0,1.4,0.9,2.4,2,2.4h2.7c-1.5,1.9-2.2,3.5-2.1,4.8
		c0.3,2.4,2.2,3.1,3.2,3.2c0.2,0,0.5-0.1,0.6-0.3c0.2-0.2,0.2-0.4,0.2-0.7c0-0.1-0.1-1.2,1-2.5c0.2-0.2,0.4-0.4,0.8-0.6
		c0.6-0.3,1.3-0.8,2.3-1.7c1.2-1.1,3-2.5,3.8-3.1h3.7c0.2,0,0.4-0.1,0.6-0.2c0.2-0.2,0.2-0.4,0.2-0.6L764.8,121.4z M749,118.6h2.6
		c0.3,0,0.6,0.4,0.6,1c0,0.1,0,0.3-0.1,0.4c-0.1,0.2-0.2,0.4-0.4,0.5c0,0-0.1,0.1-0.1,0.1c0,0,0,0-0.1,0H749c-0.3,0-0.6-0.4-0.6-1
		C748.4,119.1,748.7,118.6,749,118.6z M747.8,121.8h4.5c0.3,0,0.6,0.4,0.6,1c0,0.6-0.3,1-0.6,1h-4.5c-0.3,0-0.6-0.5-0.6-1
		C747.2,122.2,747.6,121.8,747.8,121.8z M746.7,127c-0.3,0-0.6-0.4-0.6-1c0-0.6,0.3-1,0.6-1h1.1c0,0,0,0,0,0h4.5c0,0,0,0,0,0h0.5
		c0.3,0,0.6,0.4,0.6,1c0,0.6-0.3,1-0.6,1H746.7z M747.8,130.3c-0.3,0-0.6-0.4-0.6-1c0-0.6,0.3-1,0.6-1h4.5c0.3,0,0.6,0.4,0.6,1
		c0,0.6-0.3,1-0.6,1H747.8z M760,129.3c-0.1,0-0.2,0-0.3,0.1c-0.6,0.5-2.8,2.1-4.1,3.3c-0.9,0.8-1.5,1.2-2.1,1.5
		c-0.4,0.3-0.8,0.5-1.1,0.8c-1,1.1-1.3,2.2-1.4,2.9c-0.5-0.2-1.2-0.6-1.3-1.8c-0.1-1.1,0.9-2.8,2.7-4.8c0.7-0.1,1.2-0.6,1.5-1.3
		c0.1-0.1,0.2-0.3,0.1-0.4c0-0.2,0.1-0.4,0.1-0.6c0-0.2,0-0.4-0.1-0.6c0.1-1.3,0.7-3.2,3.1-3.5c0.3,0,0.5-0.3,0.4-0.6
		c0-0.3-0.3-0.5-0.5-0.5c0,0-0.1,0-0.1,0c-1.1,0.2-1.9,0.6-2.5,1.1c-0.2-0.4-0.4-0.8-0.8-1.1c0.3-0.4,0.4-0.8,0.4-1.3
		c0-0.9-0.5-1.7-1.2-2c0-0.1,0.1-0.2,0.1-0.3c0.1-0.3,0.2-0.6,0.2-0.9c0-0.3-0.1-0.6-0.2-0.9h2.2c1.9,0,3.5,1.5,4.5,3
		c0.1,0.2,0.3,0.4,0.5,0.4h3.2l0,7.4H760z"/>
	<path fill="#00B290" d="M1583.9,128.4l5.8-4.9c0.5-0.4,0.6-1.2,0.1-1.7c-0.4-0.5-1.2-0.6-1.7-0.1l-7.9,6.7l7.9,6.7
		c0.2,0.2,0.5,0.3,0.8,0.3c0.3,0,0.7-0.1,0.9-0.4c0.4-0.5,0.4-1.2-0.1-1.7L1583.9,128.4z"/>
	<path fill="#00B290" d="M1245.9,141.5l-10-2.9v-3.9v-0.1c1.1-1.5,2-3.5,2.3-5.7c0.3-0.2,0.6-0.5,0.7-0.8c0.8-1.6,1.3-3.6,1.3-5.6
		c0-6.2-4.6-11.1-10.7-11.1c-6,0-10.7,4.9-10.7,11.3c0,1.2,0.2,2.5,0.5,3.7c0,0.1,0.2,0.5,0.6,0.8c0.1,3.3,1.3,6.2,3.2,8.3v3.2
		l-9.9,2.9c-0.8,0.2-1.9,0.6-2.9,1.4c0.4,0.5,0.8,1,1.3,1.5c1-0.8,2.1-1,2.3-1l6-1.8c2.5,1.1,7.9,3.7,9.4,3.7c1.7,0,8.1-3.1,9.5-3.9
		l6.7,2c0.1,0,1.1,0.2,2,0.9c0.4-0.5,0.9-1,1.3-1.5C1247.7,142.1,1246.7,141.6,1245.9,141.5z M1220.9,122.7c0-5.2,3.8-9.3,8.7-9.3
		c5,0,8.7,3.9,8.7,9.2c0,1.4-0.3,2.9-0.9,4.2c-2.8-2-4.1-6.1-4.1-6.2c-0.1-0.4-0.5-0.7-0.9-0.7c-0.4,0-0.8,0.2-1,0.6
		c-0.4,0.9-1.3,1.6-2.3,2.2c0-0.1,0-0.2-0.1-0.2c-0.1-0.3-0.4-0.6-0.7-0.6c-0.3-0.1-0.7,0-0.9,0.3c-1.6,1.6-4.8,2.8-6,3.1
		C1221,124.5,1220.9,123.7,1220.9,122.7z M1222.1,127.2c1-0.3,3.1-1.1,4.8-2.2c0,0.1,0.1,0.1,0.1,0.2c0.3,0.3,0.7,0.4,1.1,0.3
		c0.3-0.1,2.3-0.8,3.7-2.3c0.7,1.6,2.2,4,4.3,5.5c-0.6,4.4-3.6,7.7-7,7.7C1225.4,136.2,1222.3,132.2,1222.1,127.2z M1229.1,143.5
		c-0.6,0-3.5-1.2-6.4-2.5l1.8-0.5c0.4-0.1,0.7-0.5,0.7-1v-2.3c1.2,0.7,2.5,1.1,3.9,1.1c1.6,0,3.3-0.6,4.6-1.6v2.8
		c0,0.4,0.3,0.8,0.7,1l1.2,0.3C1233.4,141.9,1229.8,143.5,1229.1,143.5z"/>
</g>
</svg>
